<?xml version="1.0" encoding="UTF-8" standalone="no"?>
<svg
   xmlns:dc="http://purl.org/dc/elements/1.1/"
   xmlns:cc="http://creativecommons.org/ns#"
   xmlns:rdf="http://www.w3.org/1999/02/22-rdf-syntax-ns#"
   xmlns:svg="http://www.w3.org/2000/svg"
   xmlns="http://www.w3.org/2000/svg"
   version="1.1"
   width="1100"
   height="550"
   id="svg2">
  <defs
     id="defs4" />
  <metadata
     id="metadata7">
    <rdf:RDF>
      <cc:Work
         rdf:about="">
        <dc:format>image/svg+xml</dc:format>
        <dc:type
           rdf:resource="http://purl.org/dc/dcmitype/StillImage" />
        <dc:title></dc:title>
      </cc:Work>
    </rdf:RDF>
  </metadata>
<rect fill="#000000" width="1100" height="550"/>
<rect fill="#ffffff" y="042.3077" width="1100" height="42.3"/>
<rect fill="#ffffff" y="126.9231" width="1100" height="42.3"/>
<rect fill="#ffffff" y="211.5385" width="1100" height="42.3"/>
<rect fill="#ffffff" y="296.1538" width="1100" height="42.3"/>
<rect fill="#ffffff" y="380.7692" width="1100" height="42.3"/>
<rect fill="#ffffff" y="465.3846" width="1100" height="42.3"/>
  <g
     transform=" scale(0.53846) translate(0,-502.36218)"
     id="layer1">
    <rect
       width="1100"
       height="550"
       x="0"
       y="502.36215"
       id="rect3008"
       style="fill:#000000" />
    <path
       d="m 104,38.5 a 83,69.5 0 1 1 -166,0 83,69.5 0 1 1 166,0 z"
       transform="matrix(0.90361446,0,0,1.0791367,106.07775,585.81542)"
       id="path3012"
       style="fill:#ffffff" />
    <text
       x="317"
       y="206"
       transform="translate(0,552.36218)"
       id="text3014"
       xml:space="preserve"
       style="font-size:20px;font-style:normal;font-variant:normal;font-weight:normal;font-stretch:normal;line-height:125%;letter-spacing:0px;word-spacing:0px;fill:#ffffff;fill-opacity:1;stroke:none;font-family:Arabic Typesetting;-inkscape-font-specification:Arabic Typesetting"><tspan
         x="317"
         y="206"
         id="tspan3016" /></text>
    <text
       x="251"
       y="-71"
       transform="translate(0,552.36218)"
       id="text3018"
       xml:space="preserve"
       style="font-size:24px;font-style:normal;font-variant:normal;font-weight:normal;font-stretch:normal;line-height:125%;letter-spacing:0px;word-spacing:0px;fill:#000000;fill-opacity:1;stroke:none;font-family:Arabic Typesetting;-inkscape-font-specification:Arabic Typesetting"><tspan
         x="251"
         y="-71"
         id="tspan3022" /></text>
    <text
       x="195"
       y="57"
       transform="translate(0,552.36218)"
       id="text3030"
       xml:space="preserve"
       style="font-size:24px;font-style:normal;font-variant:normal;font-weight:normal;font-stretch:normal;line-height:125%;letter-spacing:0px;word-spacing:0px;fill:#000000;fill-opacity:1;stroke:none;font-family:Arabic Typesetting;-inkscape-font-specification:Arabic Typesetting"><tspan
         x="195"
         y="57"
         id="tspan3032" /></text>
    <text
       x="257.57578"
       y="-39.39394"
       transform="translate(0,552.36218)"
       id="text3034"
       xml:space="preserve"
       style="font-size:24px;font-style:normal;font-variant:normal;font-weight:normal;font-stretch:normal;line-height:125%;letter-spacing:0px;word-spacing:0px;fill:#000000;fill-opacity:1;stroke:none;font-family:Arabic Typesetting;-inkscape-font-specification:Arabic Typesetting"><tspan
         x="257.57578"
         y="-39.39394"
         id="tspan3036" /></text>
    <text
       x="300"
       y="-95.454544"
       transform="translate(0,552.36218)"
       id="text2994"
       xml:space="preserve"
       style="font-size:40px;font-style:normal;font-variant:normal;font-weight:normal;font-stretch:normal;line-height:125%;letter-spacing:0px;word-spacing:0px;fill:#000000;fill-opacity:1;stroke:none;font-family:noorehidayat;-inkscape-font-specification:noorehidayat"><tspan
         x="300"
         y="-95.454544"
         id="tspan2996" /></text>
    <path
       d="m -117.54648,-63.151679 c 2.10604,0.04621 4.21295,0.0279 6.31933,0.02016 1.67459,-0.220116 3.31381,-0.522049 4.94129,-0.95834 0.93912,-0.525615 2.05251,-0.622192 2.99526,-1.130496 0.56881,-0.306684 1.09819,-0.682223 1.6615,-0.998899 -22.70761,13.089739 1.15924,-0.702798 1.748582,-1.037454 1.009192,-0.573068 2.253521,-0.927107 3.346871,-1.312012 1.427407,-0.850351 3.090804,-0.96098 4.637962,-1.435783 0.485952,-0.208815 1.027489,-0.202944 1.525282,-0.361843 1.476592,-0.471336 1.433089,-0.644578 2.331601,0.915031 0.0664,0.365859 0.192731,0.725797 0.199209,1.097577 0.0489,2.806157 -1.4979,6.733502 -2.330716,9.435926 -0.863162,2.627351 -2.298749,5.057443 -2.847332,7.781916 -0.155949,0.93299 0.01805,1.841174 0.165008,2.759607 0,0 -9.860477,5.241948 -9.860477,5.241948 l 0,0 c -0.19396,-1.019293 -0.44141,-2.03555 -0.32226,-3.082521 0.30138,-2.87423 1.93641,-5.360487 2.95174,-8.022497 0.982728,-3.100849 2.267624,-6.302063 2.307101,-9.584807 -0.04377,-0.07212 -0.05074,-0.191354 -0.131312,-0.216363 -0.02401,-0.0075 -2.617579,0.939094 -2.882899,0.858403 -1.57384,0.356553 -3.08935,0.844007 -4.56074,1.515341 -0.80016,0.31762 -1.61581,0.612358 -2.38883,0.993634 -0.27895,0.137584 -1.09139,0.596929 -0.82281,0.440067 0.58537,-0.341882 25.486975,-14.766114 -1.75519,1.027239 -1.53915,0.847092 -3.17612,1.453809 -4.868,1.926761 -1.66184,0.398255 -3.37123,0.639712 -5.07826,0.713636 -2.12489,-0.0079 -4.25025,-0.02538 -6.37483,0.02016 0,0 9.09292,-6.606389 9.09292,-6.606389 z"
       transform="translate(0,552.36218)"
       id="path3031"
       style="fill:#ffffff" />
    <path
       d="m -108.42687,-71.993459 c 1.58651,2.351851 2.99734,4.814651 4.34538,7.308911 1.32891,2.613242 2.52156,5.315491 3.46973,8.091297 0.646124,2.011258 1.414175,3.973761 2.233706,5.919076 0.765905,1.746012 1.68072,3.418046 2.720759,5.014975 0,0 -9.635645,5.6319 -9.635645,5.6319 l 0,0 c -1.07587,-1.654186 -2.0539,-3.372546 -2.84458,-5.181676 -0.80634,-1.983923 -1.57809,-3.976527 -2.20201,-6.027652 -0.88349,-2.734197 -2.04829,-5.384284 -3.33071,-7.952939 -1.31056,-2.473629 -2.74131,-4.901886 -4.45066,-7.123484 0,0 9.69403,-5.680408 9.69403,-5.680408 z"
       transform="translate(0,552.36218)"
       id="path3033"
       style="fill:#ffffff" />
    <path
       d="m 89.2717,-64.666831 c 2.310729,0.05877 4.622746,0.03485 6.933967,0.02426 0.922472,-0.0047 1.84495,-0.0081 2.767429,-0.0112 0,0 -9.056954,6.580263 -9.056954,6.580263 l 0,0 c -0.912205,-0.0031 -1.824409,-0.0065 -2.736608,-0.0112 -2.333496,-0.01083 -4.667709,-0.03354 -7.000748,0.02426 0,0 9.092914,-6.606389 9.092914,-6.606389 z"
       transform="translate(0,552.36218)"
       id="path3035"
       style="fill:#ffffff" />
    <path
       d="m 103.0335,-64.205205 c 2.23103,0.793865 4.38781,1.781198 6.63091,2.542477 1.05635,0.425458 2.14945,0.73515 3.2481,1.02632 0,0 -9.20145,6.302097 -9.20145,6.302097 l 0,0 c -1.10071,-0.336195 -2.19444,-0.691544 -3.27196,-1.097368 -2.252408,-0.842662 -4.467253,-1.783078 -6.749387,-2.546674 0,0 9.343787,-6.226852 9.343787,-6.226852 z"
       transform="translate(0,552.36218)"
       id="path3037"
       style="fill:#ffffff" />
    <text
       x="-143.18182"
       y="-87.121208"
       transform="translate(0,552.36218)"
       id="text3521"
       xml:space="preserve"
       style="font-size:28px;font-style:normal;font-variant:normal;font-weight:normal;font-stretch:normal;line-height:125%;letter-spacing:0px;word-spacing:0px;fill:#000000;fill-opacity:1;stroke:none;font-family:Al Qalam Quran Majeed;-inkscape-font-specification:Al Qalam Quran Majeed"><tspan
         x="-143.18182"
         y="-87.121208"
         id="tspan3523" /></text>
    <path
       d=""
       id="path3351"
       style="fill:#000000" />
    <path
       d="m 34.792626,639.29745 c -0.234835,-0.13124 -0.700369,-0.48988 -1.034503,-0.79698 -0.334142,-0.30738 -0.921185,-1.18317 -1.304547,-1.9464 -0.383356,-0.76324 -0.860475,-1.88682 -1.060278,-2.49669 -0.199805,-0.60984 -0.544796,-1.33943 -0.766671,-1.6216 -0.221868,-0.28195 -0.845585,-0.68169 -1.386033,-0.88814 -0.690311,-0.2636 -0.962537,-0.47959 -0.915046,-0.72622 0.04896,-0.2541 0.420679,-0.39933 1.345808,-0.52543 0.703021,-0.0967 2.173538,-0.12762 3.267823,-0.0711 1.138247,0.0603 2.280255,0.007 2.668805,-0.12266 0.373549,-0.12463 0.977893,-0.44821 1.343009,-0.71892 0.365116,-0.27073 0.837488,-0.85795 1.049698,-1.30487 0.212223,-0.44695 0.499646,-1.24505 0.638717,-1.77356 0.219821,-0.83527 0.200875,-1.06479 -0.145068,-1.75823 -0.218828,-0.43853 -0.614132,-0.93913 -0.878441,-1.11244 -0.264307,-0.17315 -1.680214,-0.45893 -3.146442,-0.63514 -1.466227,-0.17638 -4.004813,-0.42382 -5.641293,-0.54999 -2.975403,-0.22952 -2.975403,-0.22952 -3.877968,0.41861 -0.496396,0.3566 -0.998031,0.6483 -1.114746,0.6483 -0.116702,0 -0.654505,-0.49214 -1.195141,-1.09335 -0.540618,-0.60125 -1.038938,-1.31646 -1.107393,-1.5892 -0.06849,-0.27276 -0.06161,-0.59728 0.01487,-0.72148 0.0768,-0.12402 0.609668,-0.22566 1.184325,-0.22566 0.574683,0 1.285543,-0.10964 1.579674,-0.24363 0.437882,-0.19949 0.721598,-0.16335 1.565441,0.19967 0.682512,0.29361 2.073773,0.55261 4.118946,0.76655 1.698576,0.1777 4.117533,0.42105 5.375475,0.5404 1.833309,0.17431 2.536019,0.34295 3.541311,0.8505 0.689784,0.34809 1.55669,0.97765 1.926453,1.39879 0.369768,0.42106 0.73713,1.02401 0.816356,1.33968 0.07917,0.3157 0.02717,1.29863 -0.115837,2.18446 -0.142948,0.88584 -0.518628,2.13469 -0.834853,2.77547 -0.316222,0.64085 -0.911245,1.42872 -1.322222,1.75106 -0.410993,0.32212 -1.227661,0.7054 -1.814785,0.85171 -0.587139,0.14608 -1.14736,0.33158 -1.244942,0.41212 -0.09766,0.0813 0.0112,0.51796 0.241284,0.97229 0.230299,0.45432 0.479359,1.21026 0.553458,1.67994 0.08064,0.51156 0.0085,1.32229 -0.180815,2.02129 -0.173536,0.64202 -0.497059,1.41059 -0.718906,1.70796 -0.221855,0.29747 -0.5373,0.56318 -0.701006,0.59059 -0.163673,0.027 -0.489769,-0.0578 -0.724622,-0.1886 z m -0.106754,-4.85715 c 0,-0.55387 -0.147102,-1.20375 -0.332363,-1.46838 -0.182801,-0.26087 -0.519069,-0.47451 -0.747254,-0.47451 -0.337955,0 -0.414042,0.14864 -0.410227,0.80072 0.0032,0.44038 0.195156,1.22037 0.427939,1.73338 0.357109,0.78694 0.47314,0.89142 0.742569,0.66782 0.199753,-0.16586 0.319336,-0.63723 0.319336,-1.25903 z m 174.991298,4.45179 c -0.45585,-0.11433 -1.41397,-0.51924 -2.12925,-0.89947 -0.7152,-0.38022 -1.84079,-1.21976 -2.50116,-1.86551 -0.66048,-0.64598 -1.36652,-1.49532 -1.56915,-1.88771 -0.20262,-0.39224 -0.51122,-1.39781 -0.68565,-2.23438 -0.22765,-1.09176 -0.27535,-2.06524 -0.16912,-3.44991 0.0823,-1.06087 0.23472,-2.16089 0.34059,-2.44412 0.11296,-0.30223 0.26932,-0.43461 0.37827,-0.32029 0.10198,0.10716 0.39314,1.25065 0.64703,2.54094 0.29032,1.47514 0.69498,2.78272 1.09059,3.52279 0.34579,0.64719 0.96368,1.53058 1.37294,1.96299 0.40933,0.43247 1.15464,1.12253 1.65641,1.53365 0.50159,0.41114 1.47219,1.04207 2.15677,1.4022 0.68461,0.36012 1.43843,0.65478 1.67495,0.65478 0.3724,0 0.32347,-0.11822 -0.36372,-0.8787 -0.67196,-0.74375 -0.77373,-0.98151 -0.66277,-1.54785 0.073,-0.36803 0.30671,-0.90938 0.52167,-1.20294 0.21493,-0.29356 0.70707,-0.74904 1.0936,-1.01211 0.55497,-0.37781 0.88772,-0.45241 1.58164,-0.35513 0.48347,0.0688 1.40735,0.26764 2.0531,0.44422 0.64594,0.17644 1.34247,0.47119 1.54803,0.65501 0.20546,0.18362 0.37349,0.60124 0.37349,0.92769 0,0.32638 -0.0864,0.81889 -0.19034,1.09437 -0.10482,0.27556 -0.53803,0.83845 -0.96275,1.25105 -0.42468,0.41251 -1.29483,1.06679 -1.93356,1.45382 -0.9961,0.60377 -1.39871,0.71538 -2.82712,0.78354 -0.91606,0.0437 -2.03856,-0.0141 -2.49449,-0.12893 z m 5.52728,-3.40749 c 0.0741,-0.11852 0.0734,-0.40671 -0.002,-0.64043 -0.087,-0.27098 -0.32337,-0.42523 -0.65436,-0.42523 -0.35781,0 -0.51937,0.1196 -0.51937,0.3843 0,0.21143 0.11527,0.49966 0.25607,0.64056 0.14096,0.14101 0.37556,0.25628 0.52113,0.25628 0.14579,0 0.32492,-0.0977 0.39826,-0.21548 z m -196.251685,2.17629 c -0.12855,-0.0812 -0.759304,-1.2611 -1.40169,-2.62408 -0.642368,-1.3629 -1.277042,-2.54528 -1.410365,-2.62778 -0.133324,-0.0832 -0.456097,-1.4e-4 -0.717303,0.1828 -0.261181,0.18296 -0.717718,0.33208 -1.014512,0.33131 -0.296786,-6.6e-4 -0.822288,-0.18778 -1.167772,-0.41552 -0.345468,-0.22778 -0.849375,-0.77966 -1.119808,-1.22628 -0.270402,-0.44665 -0.492137,-1.05713 -0.492743,-1.35662 -6.65e-4,-0.29938 0.114201,-0.65975 0.255123,-0.80053 0.140903,-0.14095 0.645306,-0.25372 1.120893,-0.2506 0.475571,0.003 1.248991,0.18018 1.718697,0.39339 0.779265,0.35412 0.914244,0.3596 1.542255,0.0652 0.548725,-0.25792 0.798757,-0.27309 1.233623,-0.076 0.299981,0.13668 0.602909,0.39825 0.673182,0.58137 0.07341,0.19122 -0.07204,0.54572 -0.341261,0.83222 -0.469019,0.49926 -0.469019,0.49926 0.173503,1.77217 0.353406,0.70005 0.840527,1.86059 1.082527,2.57897 0.242,0.71832 0.440006,1.59161 0.440006,1.94071 0,0.34897 -0.07671,0.68206 -0.170331,0.73986 -0.09369,0.0587 -0.275492,0.0394 -0.404024,-0.041 z m -4.693917,-6.58493 c 0.07723,-0.0781 0.03346,-0.26943 -0.09745,-0.42701 -0.130782,-0.15759 -0.418184,-0.28648 -0.638673,-0.28648 -0.220463,0 -0.400853,0.0921 -0.400853,0.20289 0,0.11159 0.168126,0.30087 0.373612,0.42047 0.205501,0.11973 0.429687,0.22061 0.498187,0.22407 0.06849,0.003 0.187768,-0.0568 0.265037,-0.13394 z m 8.991111,4.39684 c -0.827286,-0.84731 -0.827286,-0.84731 0.07356,-1.74804 0.90074,-0.90072 0.90074,-0.90072 1.799734,-0.002 0.899001,0.89894 0.899001,0.89894 0.266873,1.56313 -0.347656,0.36533 -0.785259,0.74737 -0.972454,0.84887 -0.252905,0.13739 -0.55295,-0.0328 -1.167645,-0.6622 z m -10.661711,-0.66661 c -0.469706,-0.24635 -1.469592,-1.08279 -2.221963,-1.85866 -0.7523719,-0.7759 -1.592095,-1.89122 -1.8660699,-2.47836 -0.2739706,-0.58713 -0.499066,-1.28845 -0.5002101,-1.5585 -9.835e-4,-0.27003 0.1430165,-0.77161 0.3203816,-1.11463 0.1773484,-0.3428 0.5073042,-0.72249 0.7332269,-0.84327 0.2259081,-0.12097 0.6885676,-0.21996 1.0280905,-0.21996 0.383764,0 0.808594,0.20357 1.122861,0.53825 0.505513,0.53808 0.505513,0.53808 -0.0032,0.89434 -0.279803,0.19593 -0.682676,0.53038 -0.895303,0.74289 -0.212616,0.21273 -0.3866015,0.65838 -0.3866015,0.99047 0,0.33229 0.2979685,1.05387 0.6621635,1.60358 0.36418,0.54986 0.996874,1.27564 1.405972,1.61282 0.495059,0.40807 1.09812,0.66019 1.803182,0.75376 0.63238,0.0848 1.107938,0.26715 1.179944,0.45482 0.06638,0.17281 0.0021,0.45704 -0.142931,0.63183 -0.14495,0.17459 -0.515984,0.31327 -0.824514,0.30802 -0.308562,-0.005 -0.945313,-0.21106 -1.415011,-0.4574 z m 210.911532,-1.08108 c -0.47643,-0.49907 -1.64668,-1.83092 -2.60028,-2.95967 -0.95384,-1.12873 -1.67278,-2.11344 -1.598,-2.18836 0.0758,-0.0758 0.36663,-0.13614 0.64847,-0.13614 0.28158,0 0.69045,0.0962 0.9084,0.21212 0.218,0.11654 1.38937,1.34158 2.60298,2.72211 1.21384,1.38056 2.33788,2.67829 2.49822,2.88361 0.26773,0.34351 0.21506,0.37376 -0.65104,0.37376 -0.83064,0 -1.04543,-0.10771 -1.80875,-0.90743 z M 23.501779,631.64282 c -0.424651,-0.47004 -0.772108,-0.89589 -0.772108,-0.94645 0,-0.0505 0.432746,-0.44639 0.96165,-0.87987 0.961666,-0.78795 0.961666,-0.78795 1.786728,0.14181 0.825061,0.92975 0.825061,0.92975 -0.05435,1.7256 -0.483639,0.43783 -0.940217,0.79998 -1.014621,0.8049 -0.07446,0.005 -0.482735,-0.37598 -0.907376,-0.84599 z m -9.045383,-8.91207 c -0.381631,-0.18999 -0.693883,-0.46298 -0.693883,-0.60668 0,-0.18129 0.260082,-0.22631 0.850133,-0.14709 0.645297,0.0874 0.880735,0.0341 0.977221,-0.2171 0.06986,-0.18213 0.0289,-0.51475 -0.09114,-0.73908 -0.120037,-0.22427 -0.655861,-0.63988 -1.190707,-0.92368 -0.534842,-0.28364 -0.972453,-0.58812 -0.972453,-0.67639 0,-0.089 0.264207,-0.16197 0.587124,-0.16376 0.322931,-0.002 0.716694,-0.0863 0.875037,-0.18575 0.158334,-0.0995 0.254423,-0.36297 0.213505,-0.58384 -0.04124,-0.22255 -0.475248,-0.59165 -0.974029,-0.8284 -0.494814,-0.23491 -0.903152,-0.55795 -0.907409,-0.71807 -0.0064,-0.22673 0.21649,-0.25757 1.006408,-0.13908 0.557783,0.0845 1.206302,0.25069 1.441152,0.37109 0.234851,0.12055 0.643188,0.41603 0.907402,0.65665 0.264204,0.24077 0.480368,0.66738 0.480368,0.94809 0,0.28087 -0.09639,0.69065 -0.214011,0.91053 -0.160712,0.30035 -0.105267,0.58421 0.222635,1.14009 0.297479,0.50404 0.391901,0.91844 0.296223,1.29963 -0.07732,0.30792 -0.315236,0.65316 -0.528875,0.76752 -0.213623,0.11431 -0.658932,0.20169 -0.989579,0.19432 -0.330647,-0.007 -0.913426,-0.16917 -1.295063,-0.359 z m -3.348929,-0.32125 c -0.416916,-0.36837 -0.797341,-1.31933 -1.6302164,-4.0752 -0.5975291,-1.97701 -1.03962,-3.64151 -0.9824468,-3.6986 0.057201,-0.0576 0.3840925,0.041 0.7264669,0.21789 0.3424033,0.17706 0.7474954,0.47249 0.9002313,0.65654 0.152761,0.1841 0.734385,1.91977 1.292551,3.85709 0.915579,3.17811 0.976815,3.52265 0.626032,3.52265 -0.213838,0 -0.633506,-0.21624 -0.932618,-0.48037 z m 197.156913,0.11135 c -0.17615,-0.0681 -0.55399,-0.30317 -0.83951,-0.52481 -0.28546,-0.22157 -0.64992,-0.58981 -0.80986,-0.81817 -0.16001,-0.2284 -0.4734,-1.37344 -0.6966,-2.54455 -0.22324,-1.17116 -0.4654,-2.92645 -0.53825,-3.90054 -0.0935,-1.24924 -0.041,-2.11027 0.17854,-2.92332 0.31103,-1.15254 0.31103,-1.15254 -0.43424,-2.18985 -0.40995,-0.57057 -0.9214,-1.50074 -1.13658,-2.06704 -0.21517,-0.56629 -0.45669,-1.60824 -0.53658,-2.31535 -0.11801,-1.04212 -0.0655,-1.46877 0.28133,-2.25112 0.23484,-0.53077 0.76495,-1.3393 1.17804,-1.79641 0.75102,-0.8314 0.75102,-0.8314 -0.61192,-1.94688 -0.89134,-0.7297 -1.55182,-1.48829 -1.90891,-2.19323 -0.30047,-0.59276 -0.69405,-1.73228 -0.87473,-2.53243 -0.2935,-1.29968 -0.29415,-1.537 -0.006,-2.22606 0.22067,-0.52828 0.50398,-0.81669 0.89997,-0.91613 0.31785,-0.0806 0.82848,-0.0576 1.135,0.0509 0.51299,0.18023 0.57637,0.34174 0.80053,2.04188 0.14574,1.1045 0.46286,2.30344 0.7892,2.98415 0.30019,0.62593 0.8151,1.43789 1.14444,1.80438 0.32911,0.36661 0.79546,0.72725 1.03635,0.80153 0.31334,0.0974 1.21766,-0.32016 3.18309,-1.46713 1.50999,-0.88118 2.94635,-1.60156 3.19187,-1.60088 0.24544,6.8e-4 0.80656,0.10122 1.24699,0.22349 0.44028,0.12221 0.80057,0.30455 0.80057,0.40522 0,0.10055 -0.7446,0.65934 -1.65472,1.24145 -0.90992,0.58224 -2.5605,1.56819 -3.66781,2.19085 -1.10733,0.62282 -2.37497,1.4591 -2.81714,1.85845 -0.44195,0.39928 -0.91574,1.06589 -1.05285,1.48108 -0.13845,0.41949 -0.18884,1.13291 -0.11335,1.60485 0.0756,0.46748 0.37525,1.32229 0.66785,1.89967 0.29264,0.57748 0.63244,1.04992 0.75521,1.04992 0.12277,0 0.70281,-0.15684 1.28888,-0.34865 0.73826,-0.24141 1.48595,-0.31483 2.4335,-0.23868 0.94788,0.0769 1.66514,0.28389 2.33598,0.6771 0.53239,0.31198 1.11279,0.84697 1.28959,1.18887 0.17668,0.34189 0.32141,0.99774 0.32141,1.45753 0,0.52549 -0.16637,1.0471 -0.44814,1.40544 -0.24647,0.3133 -0.94298,0.82865 -1.5479,1.14528 -0.9405,0.49221 -1.3766,0.57898 -3.01106,0.59892 -1.83213,0.0221 -1.91676,0.0448 -2.04396,0.53827 -0.0739,0.28304 -0.003,1.40328 0.15536,2.48951 0.15845,1.08617 0.40573,2.33519 0.54937,2.77568 0.22392,0.68578 0.36281,0.81044 0.96857,0.86851 0.48892,0.0471 2.50711,-0.59266 6.53953,-2.07236 4.90897,-1.80141 5.96315,-2.12013 6.65871,-2.0131 0.45449,0.071 0.99447,0.21324 1.19998,0.31853 0.20545,0.10519 0.37363,0.36474 0.37363,0.57657 0,0.26287 -0.28285,0.47868 -0.88948,0.6789 -0.70556,0.23285 -0.95925,0.45872 -1.22755,1.09272 -0.20572,0.48613 -0.5055,0.824 -0.76526,0.86296 -0.23478,0.035 -0.97454,-0.0212 -1.64394,-0.12559 -1.17248,-0.18236 -1.37951,-0.13367 -5.67024,1.333 -2.75941,0.94335 -4.77348,1.51585 -5.29501,1.50549 -0.46276,-0.009 -0.98566,-0.0727 -1.1617,-0.13866 z m 4.05652,-11.20945 c 0.2441,-0.26207 0.41597,-0.6607 0.38197,-0.88604 -0.0341,-0.22533 -0.30184,-0.57763 -0.5954,-0.78299 -0.29357,-0.20534 -0.84861,-0.42925 -1.23326,-0.49756 -0.6322,-0.11224 -0.73171,-0.0567 -1.03733,0.58455 -0.30952,0.64902 -0.30857,0.76554 0.0109,1.38358 0.3018,0.58394 0.46192,0.67477 1.18907,0.67477 0.59432,0 0.9701,-0.13946 1.28389,-0.47631 z M 47.40308,621.55549 c -0.416919,-0.36832 -0.797335,-1.31927 -1.63022,-4.07517 -0.597509,-1.97717 -1.039627,-3.64153 -0.982455,-3.69864 0.0572,-0.0576 0.384094,0.0409 0.726488,0.21794 0.342384,0.17699 0.747496,0.47249 0.900236,0.65656 0.152746,0.18407 0.734388,1.91974 1.292544,3.85708 0.91557,3.17804 0.976805,3.52252 0.626037,3.52252 -0.213846,0 -0.633521,-0.21611 -0.93263,-0.48029 z m -8.661157,-1.82578 c -0.500736,-0.40542 -0.500736,-0.40542 -0.14335,-1.679 0.196551,-0.70053 0.357377,-1.91604 0.357377,-2.70091 0,-1.42716 0,-1.42716 -0.981879,-1.42716 -0.540038,0 -1.31449,0.15784 -1.721035,0.35086 -0.406536,0.19281 -1.132664,0.81742 -1.613592,1.38761 -0.673949,0.79933 -1.015852,1.03709 -1.491229,1.03709 -0.370192,0 -0.826306,-0.20944 -1.140845,-0.52397 -0.288228,-0.28837 -0.52405,-0.64014 -0.52405,-0.78197 0,-0.14174 0.240563,-0.66826 0.534588,-1.17005 0.294016,-0.50171 0.798408,-1.09913 1.12089,-1.32778 0.322468,-0.22868 1.049692,-0.57251 1.616071,-0.76399 0.566353,-0.19164 1.642462,-0.35761 2.391344,-0.36874 0.758992,-0.0113 1.886205,0.14458 2.546966,0.35236 0.65196,0.20507 1.438397,0.60729 1.747642,0.89404 0.557597,0.51671 0.561377,0.54102 0.455732,2.93516 -0.07786,1.76292 -0.215213,2.63664 -0.509443,3.23924 -0.358155,0.7334 -0.499559,0.83217 -1.273657,0.88885 -0.609624,0.0448 -1.020977,-0.058 -1.37153,-0.34164 z m 193.061127,-1.28066 c -0.20552,-0.21132 -1.3344,-1.51737 -2.50869,-2.90245 -1.17426,-1.38485 -2.167,-2.60509 -2.20614,-2.7116 -0.0391,-0.10639 0.23143,-0.19336 0.60111,-0.19336 0.36982,0 0.8508,0.0962 1.06868,0.21219 0.21794,0.1165 1.38936,1.34152 2.60312,2.72208 1.2136,1.38053 2.33773,2.6783 2.49796,2.88378 0.2683,0.34386 0.21314,0.37353 -0.69549,0.37353 -0.6694,0 -1.10708,-0.12359 -1.36055,-0.38417 z M 26.918087,615.85247 c -0.576526,-1.05921 -0.576526,-1.05921 0.302562,-1.61429 0.483511,-0.30513 0.99189,-0.59775 1.129735,-0.65032 0.137854,-0.0528 0.524146,0.39246 0.858459,0.98855 0.334306,0.59628 0.574496,1.11247 0.53375,1.14728 -0.04069,0.0345 -0.480474,0.31626 -0.977195,0.62557 -0.496736,0.30932 -0.985876,0.56241 -1.086959,0.56241 -0.101099,0 -0.443264,-0.47664 -0.760352,-1.0592 z M 217.88832,612.7294 c -0.52991,-0.44583 -0.65687,-0.7161 -0.65687,-1.39835 0,-0.46507 0.14065,-1.11753 0.31235,-1.44969 0.17186,-0.33215 0.46878,-0.66405 0.66,-0.73737 0.19118,-0.0742 0.67068,0.0198 1.06564,0.20731 0.39481,0.1873 0.83387,0.48033 0.97568,0.6512 0.2005,0.24148 0.20131,0.55493 0.003,1.41154 -0.13967,0.60562 -0.41024,1.27372 -0.6012,1.4847 -0.19082,0.21082 -0.51696,0.38349 -0.72463,0.38349 -0.20763,0 -0.67312,-0.24871 -1.03441,-0.55283 z m 7.93359,-3.00574 c -0.14845,-0.0598 -1.32529,-1.35523 -2.61534,-2.8788 -1.28999,-1.52342 -2.34559,-2.86009 -2.34559,-2.97014 0,-0.11007 0.26434,-0.19674 0.58717,-0.19274 0.32294,0.004 0.79039,0.12436 1.03885,0.26704 0.24845,0.14253 1.5215,1.47777 2.8289,2.96712 1.3075,1.48933 2.37723,2.76238 2.37723,2.82894 0,0.0676 -0.3603,0.11341 -0.80066,0.10427 -0.44033,-0.009 -0.92214,-0.0665 -1.07056,-0.12565 z m -8.75498,-1.56596 c -0.38403,-0.23402 -0.80761,-0.66575 -0.94134,-0.95923 -0.18217,-0.39981 -0.18154,-0.73923 0.002,-1.35349 0.13506,-0.45093 0.43268,-0.98917 0.66115,-1.19586 0.35803,-0.32407 0.52164,-0.34093 1.18358,-0.12255 0.42251,0.13948 0.90883,0.46807 1.08064,0.73044 0.27484,0.41938 0.2733,0.60862 -0.0126,1.57221 -0.1789,0.60253 -0.4739,1.24407 -0.6555,1.42566 -0.18158,0.18159 -0.39535,0.32983 -0.47504,0.3294 -0.0806,-3e-4 -0.45913,-0.19241 -0.84315,-0.42658 z M 41.731498,607.17431 c -0.176145,-0.0442 -3.667138,-0.36499 -7.757766,-0.71303 -7.033325,-0.59814 -7.488706,-0.6625 -8.380018,-1.18488 -0.51837,-0.30387 -0.942515,-0.63262 -0.942515,-0.73079 0,-0.0983 0.148954,-0.30189 0.331035,-0.45307 0.271213,-0.22509 1.689006,-0.16801 7.846243,0.31535 4.133383,0.3246 8.185624,0.72791 9.004986,0.89647 0.819361,0.16837 1.71323,0.45274 1.986386,0.63171 0.273154,0.17899 0.553513,0.47362 0.623027,0.65478 0.06944,0.18114 -0.0074,0.41413 -0.171599,0.51805 -0.163904,0.10367 -0.730345,0.17898 -1.258756,0.16707 -0.528428,-0.0117 -1.104887,-0.058 -1.281023,-0.10167 z m -21.591927,-0.40608 c -0.30901,-0.16796 -0.629652,-0.47629 -0.712546,-0.6854 -0.08284,-0.20912 -0.619563,-1.91238 -1.192569,-3.78528 -0.573007,-1.87293 -1.00475,-3.44245 -0.959442,-3.48776 0.04531,-0.0454 0.429776,0.0835 0.854372,0.28388 0.424586,0.20158 0.853508,0.52198 0.953165,0.71224 0.09957,0.19017 0.589186,1.78696 1.08784,3.54837 0.498661,1.76137 0.952504,3.32264 1.008557,3.46932 0.05602,0.14688 -0.02858,0.26318 -0.187835,0.25841 -0.159359,-0.004 -0.542547,-0.14603 -0.851542,-0.31378 z m 16.752738,-6.21984 c -2.681392,-2.07153 -5.287774,-4.1613 -5.792005,-4.64362 -0.661072,-0.63247 -1.010348,-1.1988 -1.252224,-2.03057 -0.216767,-0.74527 -0.287934,-1.49979 -0.201141,-2.13291 0.0739,-0.53889 0.517246,-1.71594 0.985334,-2.61574 0.468075,-0.89969 0.851047,-1.8778 0.851047,-2.17369 0,-0.42039 0.151782,-0.58524 0.693883,-0.75411 0.381631,-0.11883 1.246477,-0.32531 1.92185,-0.45879 0.675353,-0.13346 1.639506,-0.47272 2.142551,-0.7538 0.503023,-0.28123 1.743619,-1.35838 2.756893,-2.39383 1.461007,-1.49306 1.874671,-2.05535 1.998795,-2.717 0.09909,-0.52806 0.0586,-1.07418 -0.110038,-1.48734 -0.14661,-0.35923 -0.315832,-0.86819 -0.37604,-1.13084 -0.07425,-0.32371 0.0074,-0.52283 0.254531,-0.61752 0.200226,-0.0777 0.694837,0.0179 1.099153,0.21094 0.4043,0.19272 1.024836,0.35045 1.378963,0.35045 0.354136,0 0.951341,-0.15872 1.327152,-0.35264 0.375814,-0.19409 1.344721,-0.98675 2.153144,-1.76139 0.808435,-0.77487 1.937331,-1.96611 2.508668,-2.64746 0.62791,-0.74878 1.038815,-1.44727 1.038815,-1.76603 0,-0.34457 -0.171922,-0.60551 -0.496233,-0.75338 -0.272928,-0.12425 -1.065554,-0.33845 -1.761399,-0.47582 -1.208586,-0.23845 -1.273772,-0.28439 -1.457206,-1.02664 -0.105607,-0.42736 -0.128012,-0.94384 -0.04981,-1.1477 0.115892,-0.30208 0.333662,-0.35235 1.175991,-0.27132 0.568577,0.0549 1.656633,0.39071 2.417923,0.74704 0.848759,0.39713 1.573379,0.91339 1.873366,1.33466 0.26907,0.37797 0.534665,1.09027 0.590203,1.58299 0.07814,0.69275 -0.04958,1.22812 -0.562502,2.35931 -0.519587,1.14588 -1.112105,1.91994 -2.731984,3.56867 -1.137665,1.15804 -2.464891,2.29726 -2.94939,2.53182 -0.48449,0.23464 -1.272628,0.42646 -1.751416,0.42646 -0.596837,0 -0.911252,0.10627 -1.000102,0.33767 -0.07128,0.18578 -0.130532,0.54606 -0.131678,0.80071 -9.92e-4,0.25466 -0.238219,0.9701 -0.526805,1.59004 -0.314413,0.67534 -1.105172,1.70219 -1.972822,2.56197 -0.796459,0.78922 -1.760585,1.69066 -2.142505,2.00334 -0.500483,0.40949 -0.655316,0.67793 -0.554464,0.9607 0.07701,0.21582 0.470127,0.93679 0.873688,1.60194 0.403542,0.66531 0.700302,1.38312 0.65945,1.59533 -0.04573,0.2376 -0.481789,0.53705 -1.135944,0.77985 -0.639695,0.23759 -1.320646,0.34567 -1.71332,0.27192 -0.358423,-0.0682 -1.162558,-0.50616 -1.786957,-0.97529 -0.624398,-0.4691 -1.261558,-0.85296 -1.415904,-0.85296 -0.154354,0 -0.630513,0.47662 -1.058159,1.05912 -0.427629,0.58257 -0.824709,1.37519 -0.882405,1.76143 -0.07126,0.47727 0.03223,0.92106 0.322788,1.38564 0.235229,0.37577 2.527762,2.3544 5.094512,4.3966 3.231118,2.57093 4.751077,3.91676 4.940692,4.37454 0.150614,0.36364 0.210891,0.76298 0.133932,0.88739 -0.07704,0.12462 -0.222216,0.22641 -0.32279,0.22641 -0.100565,0 -2.376749,-1.69498 -5.058113,-3.76655 z m 184.822801,-3.72771 c -0.411,-0.24582 -1.11556,-0.79797 -1.56559,-1.22685 -0.44996,-0.42884 -0.95443,-1.03919 -1.12088,-1.35629 -0.16645,-0.31712 -0.30267,-0.77338 -0.30267,-1.01413 0,-0.25419 0.13975,-0.43754 0.33306,-0.43754 0.18314,0 0.84432,0.4834 1.46904,1.07431 0.90911,0.85985 1.1625,1.00561 1.26825,0.72988 0.0736,-0.18959 0.13222,-0.48062 0.13222,-0.64687 0,-0.16611 -0.33628,-0.67436 -0.74732,-1.1293 -0.41095,-0.45498 -0.74725,-0.87725 -0.74725,-0.93846 0,-0.0623 0.15323,-0.1703 0.34046,-0.24203 0.18728,-0.0728 0.75016,0.0509 1.25084,0.27195 0.50079,0.22156 1.15085,0.72631 1.44483,1.12201 0.29396,0.39549 0.64383,1.04586 0.77757,1.445 0.13365,0.3991 0.24299,0.97831 0.24299,1.28687 0,0.30857 -0.14964,0.77472 -0.33245,1.03562 -0.22574,0.32237 -0.55104,0.47425 -1.01414,0.47371 -0.37498,-3.4e-4 -1.01806,-0.20197 -1.42896,-0.44788 z m -21.03017,-9.99115 c -0.58714,-0.33807 -1.47686,-1.02956 -1.97706,-1.53689 -0.50028,-0.50714 -1.40363,-1.69488 -2.00758,-2.63919 -0.60384,-0.94436 -1.69298,-2.62983 -2.42004,-3.74529 -0.7272,-1.11564 -2.34609,-3.39813 -3.59711,-5.07229 -2.27508,-3.04383 -2.27508,-3.04383 -3.77453,-2.90444 -1.30366,0.12105 -1.48313,0.0956 -1.37237,-0.19257 0.071,-0.18252 0.4126,-0.44998 0.76135,-0.59448 0.34848,-0.14425 0.87005,-0.44838 1.15883,-0.6755 0.44989,-0.35377 0.52499,-0.59031 0.52499,-1.65062 0,-1.2376 0,-1.2376 -1.33439,-1.81548 -0.73382,-0.31791 -1.51457,-0.73892 -1.7347,-0.93541 -0.22011,-0.19643 -0.87155,-1.05375 -1.44765,-1.90523 -0.57595,-0.85132 -1.13443,-1.54781 -1.24082,-1.54781 -0.10633,0 -0.99219,0.19137 -1.96837,0.42546 -0.97627,0.2341 -2.41986,0.42617 -3.20808,0.427 -0.91912,9.9e-4 -1.84716,-0.15339 -2.58777,-0.43054 -0.63505,-0.23752 -1.50329,-0.77053 -1.92931,-1.18419 -0.42585,-0.41367 -0.91521,-1.02425 -1.08714,-1.35678 -0.17187,-0.33265 -0.55367,-1.24487 -0.84814,-2.0275 -0.29453,-0.78247 -0.59878,-1.89909 -0.67601,-2.48122 -0.12521,-0.94376 -0.0976,-1.05801 0.26072,-1.05505 0.22066,0.002 0.50046,0.0747 0.62163,0.16012 0.12131,0.0869 0.49593,0.87739 0.83261,1.7581 0.43394,1.13579 0.87617,1.85844 1.52068,2.48579 0.51927,0.50541 1.40768,1.07113 2.073,1.32004 0.64014,0.2396 1.96138,0.54464 2.93587,0.67813 0.97441,0.13349 1.99524,0.18642 2.26867,0.11782 0.32235,-0.0817 0.53903,-0.32999 0.61635,-0.70858 0.0666,-0.32115 0.23815,-0.82289 0.3835,-1.11488 0.1454,-0.29199 0.53061,-0.62452 0.85606,-0.73898 0.39446,-0.13874 0.71272,-0.13425 0.95411,0.0131 0.19934,0.12192 1.17913,1.40864 2.17724,2.85941 1.74008,2.52928 1.88058,2.67381 3.41501,3.51294 1.30863,0.71554 1.62512,0.99074 1.73622,1.50925 0.0756,0.34883 0.15172,1.01846 0.17129,1.48817 0.0194,0.46978 0.1996,1.18972 0.40023,1.59998 0.21532,0.4402 0.67046,0.89367 1.11062,1.10674 0.41029,0.19843 2.11514,0.80519 3.78846,1.34836 2.03633,0.6611 3.34156,1.21572 3.94685,1.67752 0.59104,0.45075 1.03092,1.01994 1.26948,1.64193 0.2006,0.52364 0.37004,1.30608 0.37644,1.73882 0.006,0.43272 -0.0805,1.02675 -0.19102,1.31998 -0.1626,0.42766 -0.52361,0.6311 -1.82435,1.02795 -1.62145,0.49482 -1.62145,0.49482 -0.15409,2.73669 0.80703,1.23308 1.76878,2.56078 2.13733,2.95063 0.50157,0.53065 0.81743,0.69154 1.25743,0.64041 0.37083,-0.0431 0.68644,-0.26514 0.85532,-0.60198 0.14729,-0.29355 0.45711,-0.99006 0.68869,-1.54789 0.41548,-1.00124 0.43323,-1.01419 1.4004,-1.01419 0.69432,0 1.01702,0.0985 1.10851,0.33632 0.0718,0.18493 0.0187,0.70437 -0.11603,1.15423 -0.13479,0.44996 -0.68128,1.41049 -1.2143,2.13457 -0.60345,0.81979 -1.24438,1.43152 -1.69851,1.6212 -0.4013,0.16772 -1.04484,0.304 -1.43028,0.30287 -0.38542,-0.001 -1.18112,-0.27866 -1.76824,-0.61673 z m -2.02831,-10.41609 c 0,-0.31518 -0.19217,-0.97003 -0.42695,-1.45529 -0.26993,-0.55761 -0.72787,-1.05106 -1.24478,-1.34156 -0.44967,-0.25278 -1.38264,-0.60671 -2.07305,-0.78656 -0.69054,-0.17996 -1.34282,-0.3271 -1.44941,-0.3271 -0.10676,0 0.0801,0.35816 0.41298,0.79598 0.33397,0.4376 0.93195,1.08627 1.32919,1.44107 0.39704,0.35489 1.24979,1.00559 1.89511,1.4459 0.64507,0.44043 1.25939,0.80075 1.36493,0.80075 0.10571,0 0.19198,-0.25801 0.19198,-0.57319 z m -172.383172,9.38015 c -0.06302,-0.20556 -0.02372,-0.75798 0.08733,-1.22768 0.111004,-0.46972 0.204104,-1.0701 0.206901,-1.33442 0.0032,-0.26417 -0.124129,-0.48029 -0.282065,-0.48029 -0.157937,0 -0.435706,0.16804 -0.61727,0.37355 -0.181555,0.20556 -0.396955,0.78138 -0.47867,1.27985 -0.08167,0.49847 -0.232067,0.95791 -0.334116,1.02098 -0.102059,0.0639 -0.327375,-0.10444 -0.500739,-0.37241 -0.173337,-0.26795 -0.381104,-0.75536 -0.461689,-1.08295 -0.08062,-0.32781 -0.02202,-1.0403 0.130003,-1.58355 0.174659,-0.62389 0.608506,-1.33419 1.177528,-1.92812 0.75776,-0.79082 1.011043,-0.92943 1.593213,-0.8717 0.535975,0.0536 0.785345,0.23713 1.104759,0.81575 0.339189,0.61435 0.390399,1.00594 0.287874,2.2018 -0.0686,0.80011 -0.25422,1.76461 -0.412536,2.1435 -0.158317,0.37887 -0.45218,0.8532 -0.653032,1.05421 -0.200831,0.20084 -0.447891,0.36501 -0.549034,0.36501 -0.101089,0 -0.235402,-0.16803 -0.298401,-0.37353 z M 207.6238,580.24868 c -0.29358,-0.0531 -0.60638,-0.16495 -0.69507,-0.2497 -0.0896,-0.0856 -0.0508,-0.70572 0.0857,-1.38043 0.16248,-0.80906 0.33518,-1.19232 0.50772,-1.12615 0.14361,0.0558 0.71495,0.16839 1.26947,0.25147 1.00821,0.15113 1.00821,0.15113 0.8641,1.11206 -0.0802,0.52841 -0.19462,1.09263 -0.25638,1.25363 -0.0629,0.16118 -0.36639,0.27993 -0.6768,0.26404 -0.31039,-0.0158 -0.80446,-0.0731 -1.09803,-0.12492 z M 35.002351,576.64059 c -0.07724,-0.4556 -0.183959,-0.98875 -0.237357,-1.18502 -0.07741,-0.28382 0.149717,-0.40786 1.113996,-0.608 0.961895,-0.19967 1.245423,-0.19589 1.377836,0.0183 0.09168,0.14844 0.230485,0.69511 0.308414,1.21488 0.07797,0.51975 0.10558,0.98106 0.06124,1.02522 -0.04415,0.0443 -0.621148,0.14396 -1.282184,0.22168 -1.201837,0.14119 -1.201837,0.14119 -1.342086,-0.68707 z m 177.343479,-2.40303 c -3.28436,-1.65891 -3.28436,-1.65891 -2.52976,-2.01709 0.41509,-0.19692 0.83311,-0.35809 0.92917,-0.35809 0.0971,0 1.78418,0.7446 3.75139,1.65471 1.9672,0.91012 3.57954,1.71732 3.58279,1.794 0.003,0.0776 -0.29645,0.24466 -0.66634,0.37352 -0.36987,0.12893 -0.92214,0.22935 -1.22766,0.2231 -0.3053,-0.006 -2.03323,-0.75768 -3.83959,-1.67015 z m -181.135369,0.98078 c -0.0578,-0.1506 0.02477,-1.3755 0.183414,-2.72226 0.158637,-1.34657 0.291697,-2.66461 0.295682,-2.92876 0.0064,-0.41764 -0.101946,-0.48044 -0.827773,-0.48044 -0.66751,0 -0.944222,-0.12968 -1.37928,-0.64669 -0.299326,-0.35582 -0.606797,-0.98033 -0.683241,-1.38788 -0.0766,-0.40754 -0.0766,-1.07407 -1.13e-4,-1.48129 0.07649,-0.40719 0.286095,-0.88769 0.466025,-1.06757 0.179908,-0.17989 0.450147,-0.32722 0.600546,-0.32722 0.150381,0 0.599885,0.21942 0.998886,0.48738 0.398999,0.26792 0.957729,0.84438 1.241622,1.28095 0.378068,0.58147 0.665203,0.7938 1.073393,0.7938 0.306468,0 0.770759,0.14956 1.031738,0.33231 0.26845,0.18808 0.474512,0.55725 0.474512,0.8501 0,0.38746 -0.147604,0.55361 -0.587141,0.66115 -0.322911,0.0799 -0.657717,0.24902 -0.743987,0.37778 -0.08623,0.12864 -0.158333,0.62464 -0.160127,1.10212 -0.0021,0.47755 -0.107881,1.43821 -0.235758,2.13513 -0.12787,0.69676 -0.427915,1.72311 -0.666809,2.281 -0.238863,0.55772 -0.556317,1.01415 -0.705434,1.01415 -0.149119,0 -0.318383,-0.12328 -0.376155,-0.27376 z m -0.367649,-8.24897 c 0,-0.10778 -0.05831,-0.34806 -0.129601,-0.53382 -0.07126,-0.18565 -0.263431,-0.33778 -0.42701,-0.33778 -0.163579,0 -0.297413,0.12502 -0.297413,0.27763 0,0.15261 0.115295,0.39295 0.256209,0.53376 0.14092,0.1409 0.333074,0.25619 0.427007,0.25619 0.09393,0 0.170808,-0.089 0.170808,-0.19598 z m 6.544996,7.29522 c -0.06281,-0.10167 -0.179814,-0.67891 -0.259905,-1.28265 -0.145642,-1.09793 -0.145642,-1.09793 1.001322,-1.25004 0.630836,-0.0846 1.195016,-0.13474 1.253737,-0.11348 0.05859,0.0211 0.163019,0.253 0.231779,0.51491 0.06881,0.26214 0.185113,0.78191 0.258525,1.15514 0.120425,0.61242 0.07703,0.6896 -0.445297,0.78885 -0.318327,0.0613 -0.881883,0.1692 -1.252342,0.24128 -0.370459,0.0729 -0.724969,0.048 -0.787819,-0.0544 z m 26.158419,-5.97765 c -0.178624,-0.0641 0.381328,-0.7803 1.519343,-1.94525 1.042732,-1.06755 2.051678,-2.33916 2.394189,-3.01744 0.325581,-0.64467 0.679417,-1.46134 0.786285,-1.81484 0.106887,-0.35329 0.271286,-1.3639 0.365365,-2.24579 0.09407,-0.88195 0.09096,-2.2687 -0.0069,-3.08166 -0.09795,-0.81296 -0.268623,-1.56869 -0.379461,-1.67963 -0.126345,-0.12633 -0.289931,0.12692 -0.438552,0.67881 -0.130386,0.48415 -0.443713,1.07284 -0.696316,1.30825 -0.252596,0.23525 -0.657323,0.44228 -0.899394,0.45998 -0.242072,0.0175 -0.726821,0.008 -1.077215,-0.0201 -0.350385,-0.0286 -0.912546,-0.19491 -1.249221,-0.3692 -0.432192,-0.22344 -0.825485,-0.77814 -1.337822,-1.88706 -0.399122,-0.86389 -0.725681,-1.91316 -0.725681,-2.33193 0,-0.46925 0.159202,-0.92041 0.415106,-1.17637 0.228306,-0.22831 0.748621,-0.47769 1.15626,-0.55404 0.459231,-0.087 1.211544,-0.002 1.977698,0.22036 0.68009,0.19767 1.693938,0.59132 2.25299,0.87451 0.638046,0.32337 1.330253,0.93231 1.859348,1.63589 0.463594,0.61644 1.05341,1.74528 1.310696,2.50852 0.399962,1.18642 0.453138,1.71282 0.366651,3.62948 -0.07425,1.64377 -0.220862,2.51288 -0.549871,3.25787 -0.246778,0.55875 -0.896525,1.49486 -1.44388,2.07998 -0.547354,0.58515 -1.583214,1.43511 -2.30193,1.88857 -0.71871,0.45353 -1.691055,1.01745 -2.160769,1.25309 -0.469704,0.23572 -0.981312,0.38329 -1.136902,0.32823 z m 1.654883,-14.32922 c 0.151387,-0.28296 0.129433,-0.51155 -0.07623,-0.79259 -0.245135,-0.33533 -0.340867,-0.352 -0.632234,-0.11016 -0.18884,0.15678 -0.343354,0.39812 -0.343354,0.53642 0,0.13831 0.115288,0.36673 0.256203,0.50749 0.140901,0.14097 0.329679,0.25626 0.419497,0.25626 0.08982,0 0.259026,-0.17883 0.376034,-0.39742 z m -23.256121,12.35365 c 0,-1.28095 0,-1.28095 1.281029,-1.28095 1.281014,0 1.281014,0 1.281014,1.28095 0,1.28098 0,1.28098 -1.281014,1.28098 -1.281029,0 -1.281029,0 -1.281029,-1.28098 z m 15.89173,0.79597 c -0.242713,-0.14428 -1.53975,-1.08655 -2.882296,-2.09421 -1.342547,-1.00754 -4.339097,-3.23987 -6.658999,-4.96083 -3.597099,-2.66847 -4.286935,-3.27085 -4.68629,-4.09296 -0.344391,-0.70889 -0.405324,-1.02687 -0.230263,-1.20196 0.175046,-0.17501 0.412851,-0.15075 0.898701,0.0924 0.363376,0.18128 3.277817,2.25283 6.476545,4.60344 3.198728,2.35062 6.323828,4.79011 6.944653,5.42112 0.772745,0.78528 1.143133,1.34176 1.174271,1.76445 0.03007,0.40683 -0.06373,0.63687 -0.274768,0.67453 -0.176137,0.0311 -0.518841,-0.0614 -0.761554,-0.20512 z m 144.075891,-1.60559 c -1.7908,-0.90151 -3.25598,-1.69728 -3.25598,-1.76832 0,-0.0718 0.24473,-0.2405 0.54386,-0.37679 0.29912,-0.13625 0.70743,-0.25008 0.90743,-0.25291 0.19993,-0.003 1.92474,0.73278 3.83293,1.63479 1.90827,0.90194 3.46951,1.71146 3.46951,1.79896 0,0.0883 -0.30266,0.26459 -0.67249,0.39358 -0.36966,0.12887 -0.87418,0.22871 -1.12087,0.22211 -0.24662,-0.006 -1.91359,-0.74991 -3.70439,-1.65142 z M 37.249099,564.55 c 6.93e-4,-0.38163 0.104419,-1.06576 0.230604,-1.52018 0.153385,-0.55231 0.158471,-0.89715 0.01519,-1.04035 -0.143149,-0.14311 -0.396497,-0.0315 -0.764372,0.3361 -0.325866,0.32597 -0.551592,0.79368 -0.553527,1.14724 -0.0021,0.32817 -0.09978,0.74092 -0.217837,0.91699 -0.18238,0.27224 -0.281679,0.24015 -0.661851,-0.21357 -0.382556,-0.45634 -0.431629,-0.72921 -0.339108,-1.88551 0.0868,-1.08466 0.233302,-1.50667 0.741141,-2.13514 0.348132,-0.43073 0.932384,-0.95844 1.298355,-1.17296 0.365977,-0.21435 0.84616,-0.3325 1.06705,-0.26237 0.220909,0.0711 0.574663,0.44867 0.786109,0.84145 0.311851,0.57895 0.361532,1.01708 0.263066,2.31906 -0.06679,0.88295 -0.287183,1.92883 -0.489813,2.32405 -0.202612,0.3954 -0.475068,0.78935 -0.605474,0.87553 -0.130404,0.0872 -0.357183,0.15833 -0.503971,0.16015 -0.159666,0.002 -0.266402,-0.27535 -0.26569,-0.69049 z m 42.172474,-0.5661 c -0.07189,-0.22647 -0.07022,-0.65257 0.0037,-0.94693 0.07396,-0.29433 0.774312,-1.1438 1.556529,-1.88775 0.782215,-0.74386 2.09474,-1.96423 2.916728,-2.71195 1.356367,-1.23373 1.501169,-1.31484 1.566412,-0.87804 0.03948,0.26476 0.01384,0.79025 -0.05688,1.16782 -0.09965,0.53124 -0.618405,1.11552 -2.297092,2.58737 -1.192585,1.04569 -2.481165,2.16663 -2.863497,2.49123 -0.653446,0.55458 -0.703,0.56535 -0.825847,0.17825 z m -0.753954,-3.30577 c 0,-0.58398 0.180447,-0.9375 0.800634,-1.56868 0.440356,-0.44828 1.747556,-1.67726 2.904896,-2.73128 1.157327,-1.05396 2.190155,-1.94822 2.295165,-1.98751 0.104996,-0.0389 0.1909,0.21899 0.1909,0.5733 0,0.35438 -0.09007,0.88132 -0.200144,1.17085 -0.110085,0.28951 -1.366069,1.56887 -2.791072,2.84283 -1.425005,1.27401 -2.728051,2.34752 -2.895653,2.38544 -0.219476,0.0501 -0.304726,-0.14194 -0.304726,-0.68495 z m -40.188414,-5.8346 c -0.189209,-0.20979 -0.400377,-0.62177 -0.469291,-0.91534 -0.0749,-0.31886 0.2583,-1.98422 0.827175,-4.13532 0.523859,-1.98091 0.999924,-3.64914 1.057916,-3.70701 0.058,-0.0588 0.302416,0.21755 0.543164,0.61252 0.240741,0.39477 0.438065,0.93887 0.438509,1.20895 3.43e-4,0.27004 -0.393631,1.9034 -0.875705,3.62964 -0.482073,1.72607 -0.944288,3.26209 -1.027132,3.41345 -0.116063,0.21173 -0.229607,0.18718 -0.494636,-0.1069 z M 186.88539,552.6264 c -3.37164,-1.67037 -3.46812,-1.73628 -2.95597,-2.01962 0.29114,-0.16124 0.78514,-0.29647 1.09774,-0.30064 0.31275,-0.004 1.89798,0.62563 3.52285,1.39955 1.62482,0.77388 3.19453,1.50224 3.4881,1.61846 0.53368,0.21117 0.53368,0.21117 0,0.4848 -0.29357,0.15047 -0.78884,0.33444 -1.1007,0.40888 -0.44183,0.10541 -1.3355,-0.24556 -4.05202,-1.59143 z m -114.729638,1.19125 c -0.395672,-0.31773 -0.400645,-0.36243 -0.06777,-0.60953 0.197591,-0.14674 1.254424,-0.38504 2.348543,-0.52974 1.09412,-0.14453 2.388254,-0.45509 2.875859,-0.68975 0.487606,-0.23486 1.309619,-0.87919 1.826705,-1.43214 0.517085,-0.5528 1.295061,-1.61085 1.728865,-2.35102 0.619092,-1.05634 0.788716,-1.57091 0.788716,-2.39282 0,-0.95626 -0.06815,-1.09853 -0.78651,-1.64312 -0.432581,-0.32803 -1.057085,-0.85317 -1.387773,-1.16708 -0.398487,-0.37817 -0.601267,-0.78633 -0.601267,-1.21007 0,-0.35182 0.05825,-0.79145 0.12959,-0.97726 0.08026,-0.20924 0.384958,-0.33731 0.800645,-0.33667 0.379471,6.9e-4 0.923232,0.20946 1.251437,0.48048 0.319223,0.26357 0.913453,1.03979 1.32052,1.72462 0.407064,0.68501 0.84259,1.72324 0.967837,2.30721 0.176138,0.82136 0.157115,1.40044 -0.08391,2.55684 -0.171441,0.8223 -0.64704,2.18591 -1.056882,3.03038 -0.505382,1.0413 -0.981778,1.69376 -1.480437,2.02747 -0.4044,0.27073 -1.250002,0.69158 -1.879122,0.93509 -0.857525,0.33196 -1.785191,0.46504 -3.705909,0.53141 -2.125131,0.0743 -2.634854,0.0297 -2.989051,-0.2543 z m 74.348458,-1.08568 c -0.0716,-0.0717 -0.0456,-0.34746 0.0564,-0.61474 0.10169,-0.26722 1.25535,-2.68325 2.56394,-5.36892 1.30853,-2.68584 2.57752,-5.2839 2.82008,-5.77367 0.24248,-0.48969 0.76719,-1.2265 1.16597,-1.63705 0.3989,-0.41049 1.17125,-0.89856 1.71663,-1.08438 0.54539,-0.18574 1.31983,-0.33793 1.72105,-0.33793 0.40111,0 1.39554,0.20242 2.20977,0.44974 0.83091,0.25229 1.82016,0.40997 2.25453,0.35937 0.77378,-0.0911 0.77378,-0.0911 1.68386,1.84544 0.60495,1.28712 1.22007,2.23082 1.83532,2.81604 0.50889,0.48419 1.79018,1.45297 2.84691,2.15294 1.05688,0.69996 2.36226,1.52884 2.90106,1.84204 0.53885,0.31313 1.23193,0.5691 1.54031,0.5691 0.33607,0 0.64966,-0.16538 0.78206,-0.4128 0.12141,-0.22712 0.2195,-1.01979 0.21779,-1.76141 -0.002,-0.74176 -0.14078,-1.93167 -0.30875,-2.64435 -0.17296,-0.7331 -0.64445,-1.7993 -1.08543,-2.45473 -0.65969,-0.98016 -0.76261,-1.2865 -0.66857,-1.98849 0.0815,-0.6016 0.35955,-1.08266 1.01415,-1.74957 0.49659,-0.50602 1.37716,-1.12402 1.95674,-1.37345 0.57964,-0.24931 1.72563,-0.50959 2.54628,-0.57843 0.82078,-0.0698 2.42169,-0.013 3.55748,0.12376 1.13591,0.13685 3.42506,0.39408 5.08738,0.57158 1.66205,0.17747 3.51151,0.46812 4.10984,0.64588 0.59828,0.17765 1.0879,0.44666 1.0879,0.5977 0,0.15114 -0.21635,0.47162 -0.48048,0.7124 -0.2641,0.24058 -0.67247,0.53515 -0.90741,0.65464 -0.30471,0.15494 -1.61799,0.0713 -4.59035,-0.29573 -2.2897,-0.28212 -5.37843,-0.57402 -6.86352,-0.64876 -1.48502,-0.0756 -2.83791,-0.084 -3.00636,-0.0182 -0.25892,0.0997 -0.21378,0.65552 0.29278,3.6076 0.32938,1.91947 0.60136,3.74395 0.60436,4.0545 0.003,0.31065 -0.18419,1.17926 -0.41612,1.93055 -0.25072,0.81147 -0.72872,1.72419 -1.17781,2.24874 -0.41574,0.48576 -1.08937,0.99306 -1.49702,1.12768 -0.55437,0.18295 -1.03473,0.18362 -1.90625,0.003 -0.75988,-0.15776 -1.83413,-0.6642 -3.0893,-1.45671 -1.05839,-0.66834 -2.33673,-1.52434 -2.84078,-1.90237 -0.50408,-0.37795 -1.17521,-0.897 -1.4914,-1.15346 -0.55275,-0.44803 -0.59667,-0.45194 -1.13521,-0.0996 -0.30805,0.20197 -0.93808,0.7449 -1.40001,1.20687 -0.46187,0.46194 -1.00779,0.83914 -1.21326,0.83834 -0.2055,-10e-4 -0.59254,-0.32287 -0.85985,-0.71556 -0.26743,-0.39282 -0.57303,-1.01664 -0.67896,-1.38635 -0.10612,-0.36977 -0.11552,-0.94196 -0.0206,-1.27185 0.0951,-0.32969 0.31588,-0.88224 0.49168,-1.22766 0.17598,-0.34532 0.3869,-0.84502 0.46869,-1.11028 0.13241,-0.42946 9.9e-4,-0.55244 -1.2007,-1.12084 -0.74206,-0.351 -1.6034,-0.6384 -1.91388,-0.63849 -0.32424,-10e-5 -0.83779,0.25506 -1.20637,0.5993 -0.39266,0.36705 -1.68176,2.67849 -3.32376,5.96029 -1.56245,3.12317 -2.8835,5.50208 -3.16464,5.69893 -0.26546,0.18594 -0.58923,0.33801 -0.71983,0.33801 -0.13034,0 -0.29507,-0.0586 -0.3658,-0.12866 z m -89.647817,-0.8372 c -0.31219,-0.16967 -0.776497,-0.64634 -1.031796,-1.05931 -0.255306,-0.41322 -0.42993,-0.85397 -0.388054,-0.9796 0.04421,-0.13258 0.320395,-0.0361 0.658331,0.22954 0.320207,0.25192 0.750258,0.4259 0.955661,0.38682 0.205409,-0.0389 0.401347,-0.26486 0.435423,-0.50156 0.03399,-0.23663 -0.185898,-0.89629 -0.488817,-1.46604 -0.302921,-0.56976 -0.507854,-1.07873 -0.455424,-1.13122 0.05253,-0.0527 0.399408,0.0627 0.771036,0.25414 0.527717,0.27288 0.74247,0.29398 0.980605,0.0968 0.167707,-0.139 0.304915,-0.37186 0.304915,-0.51732 0,-0.14525 -0.240184,-0.61817 -0.533751,-1.05076 -0.293576,-0.43268 -0.533761,-0.87834 -0.533761,-0.99056 0,-0.11218 0.09866,-0.20401 0.219125,-0.20401 0.120506,0 0.645646,0.42652 1.166948,0.94785 0.521312,0.52129 1.009584,1.1938 1.085044,1.49452 0.07556,0.30057 0.07619,0.79013 0.0014,1.08761 -0.07477,0.29754 -0.360767,0.64352 -0.635732,0.76875 -0.409696,0.18671 -0.495896,0.382 -0.477552,1.08152 0.01792,0.68495 -0.09534,0.95468 -0.573594,1.36615 -0.327792,0.28203 -0.662681,0.50887 -0.744206,0.50417 -0.08144,-0.004 -0.403649,-0.1474 -0.715832,-0.31685 z m 56.550877,-1.11034 c -0.0602,-0.31399 -0.0332,-0.77021 0.0599,-1.01363 0.0934,-0.24346 1.26066,-1.44938 2.59542,-2.67977 1.33487,-1.23013 2.6427,-2.41983 2.90601,-2.64356 0.47913,-0.40673 0.47913,-0.40673 0.47913,0.6117 0,0.90321 -0.0914,1.10218 -0.80076,1.75728 -0.44025,0.40629 -1.77456,1.59369 -2.96527,2.63886 -2.1169,1.85848 -2.16688,1.88757 -2.27361,1.32912 z m -60.134276,-1.58267 c -0.240751,-0.39488 -0.438076,-0.79062 -0.438514,-0.87936 -3.47e-4,-0.0896 0.433731,-1.81241 0.964827,-3.83026 0.531094,-2.01762 1.000523,-3.70353 1.043176,-3.74618 0.04268,-0.0426 0.280654,0.18067 0.528899,0.49625 0.248239,0.31557 0.450384,0.87319 0.449203,1.23885 -0.0014,0.36584 -0.414745,2.12754 -0.919044,3.91494 -0.5043,1.7874 -0.978546,3.31153 -1.053875,3.38672 -0.07542,0.0762 -0.333932,-0.186 -0.574672,-0.58096 z m 51.393706,-2.98432 c -1.00939,-0.66008 -1.00939,-0.66008 -0.33904,-1.65216 0.36844,-0.54569 0.695,-1.0246 0.72559,-1.06427 0.0303,-0.0397 0.49522,0.18557 1.0327,0.50062 0.53762,0.31504 1.01952,0.6409 1.07096,0.72399 0.0518,0.084 -0.2003,0.60239 -0.55906,1.15402 -0.35873,0.55166 -0.71297,1.00183 -0.78715,1.00045 -0.0751,-9.9e-4 -0.58903,-0.29964 -1.144,-0.66265 z m -18.575133,0.0669 c -0.320342,-0.0379 -0.776704,-0.31573 -1.014145,-0.61763 -0.237434,-0.30173 -0.431703,-0.71734 -0.431703,-0.92339 0,-0.20601 0.168136,-0.57261 0.373633,-0.81498 0.279069,-0.32882 0.805907,-0.49787 2.081661,-0.66743 0.97378,-0.12945 2.181667,-0.45792 2.809822,-0.76384 0.605989,-0.29521 1.446659,-0.91861 1.868156,-1.38511 0.421496,-0.46647 0.766364,-0.97175 0.766364,-1.12262 0,-0.15108 -0.58875,-1.23162 -1.308338,-2.40137 -0.719577,-1.16971 -1.481027,-2.41503 -1.692108,-2.76746 -0.329321,-0.54948 -0.351725,-0.79939 -0.157898,-1.76136 0.124234,-0.61638 0.300678,-1.12084 0.39211,-1.12084 0.09142,0 0.39323,0.26974 0.670669,0.59939 0.277443,0.32986 1.078615,1.53824 1.78038,2.68566 0.70177,1.14729 1.660256,2.67726 2.129963,3.39997 0.469708,0.72274 1.19029,1.54174 1.601279,1.82 0.677394,0.45845 0.912267,0.49604 2.512033,0.40065 1.337396,-0.0806 2.051945,-0.24564 2.950695,-0.68548 0.65225,-0.31917 1.27205,-0.78606 1.37715,-1.03754 0.10529,-0.2515 0.29303,-0.86156 0.41781,-1.35568 0.12453,-0.49411 0.33239,-0.96367 0.46165,-1.04376 0.13314,-0.0831 0.67608,0.35445 1.25014,1.00521 1.01485,1.15047 1.01485,1.15047 2.58798,1.13631 0.95446,-0.008 2.53828,-0.24996 4.02823,-0.61421 1.35053,-0.33023 2.70737,-0.7283 3.01532,-0.88475 0.308,-0.15649 0.61477,-0.49351 0.68159,-0.74906 0.0945,-0.35765 -0.14791,-0.7467 -1.05049,-1.69292 -1.02856,-1.07844 -1.15399,-1.30313 -1.02557,-1.83934 0.0812,-0.33589 0.24069,-0.73073 0.35636,-0.87759 0.11568,-0.14669 0.43338,-0.26686 0.70602,-0.26686 0.32923,0 0.80136,0.35481 1.40593,1.05678 0.50077,0.58123 1.13051,1.4685 1.39963,1.97166 0.26919,0.50319 0.48948,1.18359 0.48948,1.51204 0,0.3285 -0.12992,0.90803 -0.2885,1.28767 -0.15864,0.37973 -0.65864,1.01541 -1.11111,1.4127 -0.45247,0.39728 -1.30749,0.94393 -1.89997,1.21466 -0.5926,0.27076 -1.94193,0.69647 -2.99889,0.94622 -1.05687,0.24972 -2.49799,0.45331 -3.20252,0.45241 -0.70469,-9.9e-4 -1.56901,-0.11137 -1.92115,-0.24559 -0.35197,-0.13421 -0.80108,-0.38988 -0.99811,-0.56796 -0.32492,-0.29425 -0.4313,-0.24256 -1.15992,0.56405 -0.44131,0.48832 -1.17682,1.07904 -1.63479,1.31272 -0.45788,0.2335 -1.56937,0.61515 -2.469878,0.84783 -1.018045,0.26327 -1.917143,0.37248 -2.377208,0.28891 -0.406953,-0.0749 -1.031427,-0.28525 -1.387783,-0.46949 -0.356342,-0.1842 -1.017215,-0.63164 -1.468606,-0.99433 -0.820723,-0.65939 -0.820723,-0.65939 -1.239541,-0.12712 -0.23035,0.29274 -0.749309,0.93443 -1.153241,1.42586 -0.454879,0.55331 -1.242711,1.13903 -2.069768,1.53871 -0.734439,0.35477 -1.81573,0.72209 -2.402861,0.81615 -0.587139,0.0951 -1.329625,0.13995 -1.649957,0.10217 z M 114.90077,544.519 c -0.55286,-0.34412 -1.00516,-0.72827 -1.00516,-0.85366 0,-0.12532 0.29354,-0.65463 0.65237,-1.17602 0.65234,-0.94805 0.65234,-0.94805 1.65457,-0.27077 0.55135,0.37257 1.03453,0.7017 1.07359,0.73164 0.0388,0.0296 -0.25324,0.53573 -0.64953,1.1243 -0.72079,1.07015 -0.72079,1.07015 -1.72584,0.44451 z m 29.76757,-0.0219 c -0.10286,-0.27276 -0.35828,-4.29096 -0.56807,-8.92941 -0.38111,-8.43343 -0.38111,-8.43343 0.0684,-9.44755 0.24672,-0.55768 0.53832,-1.01403 0.64793,-1.01403 0.10962,0 0.31969,0.145 0.46675,0.32205 0.18314,0.22076 0.39699,2.65519 0.67977,7.73948 0.22693,4.07963 0.35908,8.12422 0.29343,8.98807 -0.0665,0.86379 -0.24031,1.82329 -0.38835,2.13232 -0.14825,0.30916 -0.43655,0.59411 -0.64079,0.63339 -0.23232,0.0448 -0.44127,-0.11422 -0.55801,-0.42432 z m -9.11054,-1.46824 c -0.35683,-0.10497 -1.04471,-0.52955 -1.52841,-0.94365 -0.48376,-0.41407 -0.92138,-0.75277 -0.97238,-0.75277 -0.0513,0 -0.37224,0.24572 -0.7134,0.54621 -0.34121,0.30052 -0.90049,0.6954 -1.24283,0.87779 -0.41654,0.22172 -0.96466,0.29864 -1.65691,0.23213 -0.56872,-0.0549 -1.21212,-0.26039 -1.42942,-0.45709 -0.21754,-0.1967 -0.5642,-0.7632 -0.77066,-1.25873 -0.20658,-0.49556 -0.47201,-1.10948 -0.59022,-1.36409 -0.21479,-0.46294 -0.21479,-0.46294 -1.05337,-0.0256 -0.46129,0.24064 -1.24986,0.48359 -1.75263,0.54022 -0.61721,0.0706 -1.15083,-0.0169 -1.64312,-0.26674 -0.4012,-0.20338 -0.89752,-0.51719 -1.10292,-0.69736 -0.20548,-0.18019 -0.37369,-0.44639 -0.37369,-0.59171 0,-0.14509 0.42576,-0.73765 0.94622,-1.3164 0.52048,-0.57898 1.60123,-1.48717 2.4019,-2.0181 0.80065,-0.53119 1.76959,-1.1463 2.15311,-1.36734 0.38352,-0.22084 0.93725,-0.76428 1.23056,-1.20746 0.29331,-0.44346 0.61502,-0.80606 0.71491,-0.80606 0.10014,0 0.24251,0.44588 0.31723,0.99068 0.0756,0.54469 0.13574,2.13434 0.13574,3.53238 0,2.4142 0.0261,2.5684 0.5239,3.06614 0.36357,0.36351 0.76118,0.52395 1.29752,0.52395 0.57888,0 0.9385,-0.16508 1.4304,-0.65687 0.65687,-0.65681 0.65687,-0.65681 0.52183,-4.0031 -0.0752,-1.84057 -0.19859,-4.35841 -0.27588,-5.5952 -0.13797,-2.20057 -0.12926,-2.26251 0.40606,-2.88226 0.54699,-0.63348 0.54699,-0.63348 0.7616,-0.0734 0.11808,0.30853 0.32032,1.50951 0.44947,2.66884 0.12916,1.15933 0.31799,3.51003 0.4197,5.22382 0.12768,2.15496 0.29187,3.32313 0.53202,3.78759 0.19112,0.36947 0.56651,0.8153 0.83444,0.99077 0.2678,0.17568 0.7703,0.37131 1.11652,0.43488 0.34607,0.0643 0.74477,0.0379 0.88595,-0.0572 0.19541,-0.13135 0.13256,-0.78048 -0.26476,-2.72809 -0.28667,-1.40565 -0.52088,-3.27637 -0.52037,-4.15707 3.7e-4,-0.88073 0.12246,-1.84139 0.27092,-2.13494 0.14872,-0.29355 0.40904,-0.53386 0.57903,-0.53386 0.16976,0 0.37455,0.24031 0.45506,0.53386 0.0813,0.29355 0.44294,2.12377 0.80566,4.06712 0.36277,1.94336 0.6575,3.96089 0.65484,4.48345 -0.002,0.52264 -0.1872,1.35225 -0.4102,1.84359 -0.23266,0.51219 -0.66314,1.0248 -1.00935,1.20195 -0.33226,0.16969 -0.89228,0.36062 -1.24447,0.42403 -0.35242,0.064 -0.9326,0.0292 -1.2896,-0.0764 z m -9.31807,-5.35462 c 0.38055,-0.14258 0.47896,-0.32032 0.42695,-0.77217 -0.0466,-0.40088 -0.20294,-0.60245 -0.49449,-0.63587 -0.2348,-0.0265 -0.85939,0.16541 -1.38774,0.42708 -0.52851,0.26173 -0.96082,0.569 -0.96082,0.68297 0,0.11401 0.24018,0.32813 0.53376,0.47575 0.29356,0.14775 0.72582,0.20973 0.96074,0.13792 0.23495,-0.0728 0.64954,-0.2138 0.9216,-0.31568 z m 40.64732,-3.77215 c -0.2288,-0.22877 -0.45265,-0.52598 -0.49745,-0.66036 -0.0598,-0.17735 -0.63424,-0.19587 -2.09631,-0.0687 -1.10802,0.0982 -2.59322,0.0986 -3.3005,9.9e-4 -0.70711,-0.0969 -1.38043,-0.27041 -1.49594,-0.38603 -0.13792,-0.13795 -0.12817,-0.29235 0.0284,-0.44911 0.13156,-0.13139 1.13549,-0.32702 2.23128,-0.43497 1.09561,-0.10774 2.42113,-0.2661 2.94544,-0.35185 0.95345,-0.15587 0.95345,-0.15587 0.89461,-1.11405 -0.0505,-0.81331 0.0315,-1.04468 0.54113,-1.53061 0.32989,-0.31482 0.87037,-0.67461 1.20107,-0.7996 0.33047,-0.12477 0.95979,-0.22711 1.39845,-0.22711 0.43841,0 0.91256,0.11536 1.05354,0.25632 0.14088,0.14096 0.25626,0.55458 0.25626,0.91917 0,0.3657 -0.23115,0.97638 -0.5151,1.36137 -0.28338,0.38401 -0.66354,0.81099 -0.84483,0.94887 -0.19831,0.15089 -0.35447,0.66596 -0.39235,1.29364 -0.0478,0.7918 -0.17447,1.11685 -0.5272,1.34999 -0.41587,0.2748 -0.50866,0.26339 -0.8807,-0.10882 z m 1.32254,-4.15468 c 0.12173,-0.19304 0.15482,-0.41712 0.0747,-0.49811 -0.0819,-0.0819 -0.29386,-0.0256 -0.47278,0.12257 -0.17898,0.14861 -0.3255,0.41042 -0.3255,0.58209 0,0.17145 0.11324,0.27415 0.25161,0.228 0.13839,-0.0464 0.35118,-0.24177 0.47285,-0.43455 z m -70.326678,3.06056 c 0,-0.7941 0.132272,-0.96233 2.524388,-3.20946 1.38855,-1.30414 2.73349,-2.5176 2.98905,-2.6966 0.45754,-0.32045 0.46461,-0.30995 0.46461,0.67557 0,0.85756 -0.1015,1.09632 -0.70843,1.6667 -0.38985,0.36618 -1.67536,1.50639 -2.85677,2.53387 -1.181461,1.02751 -2.207637,1.86812 -2.280437,1.86812 -0.0731,0 -0.132411,-0.37713 -0.132411,-0.8382 z m 86.151738,-1.29088 c -0.29308,-0.56682 -0.40201,-0.61897 -1.01963,-0.48731 -0.38022,0.0819 -1.65216,0.15048 -2.82644,0.15428 -1.17429,0.004 -2.39929,-0.0681 -2.72218,-0.15728 -0.32285,-0.0911 -0.58713,-0.30078 -0.58713,-0.46781 0,-0.16701 0.0827,-0.35407 0.18185,-0.41604 0.10008,-0.0622 1.27602,-0.21545 2.61349,-0.34164 1.3374,-0.12608 2.6509,-0.28432 2.91909,-0.35162 0.42228,-0.10593 0.46964,-0.21673 0.35455,-0.83009 -0.093,-0.49169 -0.015,-0.90705 0.25252,-1.35996 0.21173,-0.35859 0.68373,-0.79376 1.04849,-0.96682 0.36486,-0.1733 1.06815,-0.37963 1.56272,-0.45871 0.70495,-0.11273 0.99045,-0.0616 1.32099,0.23769 0.23187,0.20983 0.4215,0.57438 0.4215,0.81014 0,0.23561 -0.24325,0.84341 -0.54047,1.35073 -0.29729,0.50709 -0.73298,1.02517 -0.9683,1.15112 -0.35003,0.18741 -0.40258,0.36298 -0.28952,0.96564 0.0967,0.51299 0.0319,0.89842 -0.211,1.2695 -0.19194,0.29306 -0.53651,0.53279 -0.76573,0.53279 -0.24602,0 -0.55096,-0.25974 -0.7448,-0.63461 z m 1.81187,-4.09547 c 0,-0.0997 -0.13239,-0.18038 -0.29412,-0.18038 -0.16187,0 -0.41033,0.13986 -0.55222,0.31078 -0.14193,0.17094 -0.1921,0.41745 -0.1117,0.54776 0.10024,0.16214 0.27421,0.12084 0.55223,-0.13057 0.22316,-0.20203 0.40581,-0.44851 0.40581,-0.54759 z m -66.08472,2.15948 c -0.0768,-0.12292 -0.0192,-0.36692 0.12587,-0.54192 0.14535,-0.17506 1.29969,-0.99345 2.56518,-1.81854 2.30079,-1.50037 2.30079,-1.50037 1.77449,-2.2759 -0.40176,-0.59197 -0.49283,-0.9298 -0.38507,-1.42792 0.0786,-0.35899 0.3231,-0.90987 0.54549,-1.22449 0.22229,-0.31467 0.72614,-0.77105 1.1196,-1.01417 0.39335,-0.24324 0.91462,-0.44214 1.1582,-0.44214 0.24385,0 0.59274,0.21362 0.77551,0.47451 0.18278,0.26108 0.33229,0.7261 0.33229,1.03351 0,0.30764 -0.12743,0.98277 -0.28322,1.50053 -0.25348,0.84231 -0.24228,1.00871 0.10559,1.58184 0.21398,0.35223 0.3894,0.79023 0.39001,0.97326 6.8e-4,0.18312 -0.13619,0.51932 -0.30408,0.74731 -0.29805,0.40496 -0.32173,0.40545 -1.04049,0.0215 -0.73526,-0.39272 -0.73526,-0.39272 -1.79459,0.36849 -0.58259,0.41851 -1.67572,1.04185 -2.42904,1.38491 -0.7531,0.34324 -1.62793,0.68223 -1.94365,0.75337 -0.31568,0.072 -0.63617,0.0283 -0.71214,-0.0952 z m 6.4319,-6.29972 c 0.0759,-0.29905 0.0841,-0.59696 0.0181,-0.66188 -0.0658,-0.0661 -0.22058,-0.0553 -0.34573,0.0222 -0.12538,0.0783 -0.2277,0.37534 -0.2277,0.6619 0,0.28661 0.0951,0.52121 0.20937,0.52121 0.11512,0 0.27087,-0.24459 0.34582,-0.54374 z m -40.266958,5.33851 c 0,-0.18121 0.44099,-0.80099 0.97998,-1.3771 0.538988,-0.57633 0.917612,-1.14866 0.841411,-1.27197 -0.07629,-0.1234 -0.345013,-0.22415 -0.597342,-0.22415 -0.252335,0 -0.822977,0.35558 -1.268109,0.79028 -0.589777,0.57579 -0.873176,0.72646 -1.044737,0.55477 -0.141718,-0.14159 -0.176194,-0.50493 -0.08664,-0.91276 0.08175,-0.37267 0.442745,-1.01233 0.802018,-1.42147 0.35927,-0.40917 1.018785,-0.93048 1.46558,-1.15841 0.446786,-0.228 1.236755,-0.41449 1.75548,-0.41449 0.570174,0 1.046335,0.12448 1.204118,0.31443 0.143552,0.17309 0.261,0.64178 0.261,1.04173 0,0.39993 -0.118388,0.95495 -0.263079,1.23347 -0.144695,0.27829 -0.601769,0.9252 -1.015736,1.43715 -0.413961,0.51193 -1.049777,1.1122 -1.412927,1.33361 -0.363146,0.2214 -0.876437,0.40297 -1.14065,0.4034 -0.290947,3.4e-4 -0.480383,-0.12907 -0.480383,-0.32849 z m 43.908098,-3.26367 c -0.19428,-0.21467 -0.35328,-0.6119 -0.35328,-0.88261 0,-0.27071 0.11123,-0.8637 0.24728,-1.31762 0.13923,-0.46453 0.38242,-0.82538 0.55654,-0.82538 0.1942,0 0.26121,0.12555 0.17986,0.33723 -0.072,0.18552 -0.0719,0.56983 2.3e-4,0.85397 0.0914,0.36077 0.27923,0.5168 0.62478,0.5168 0.38768,0 0.61897,-0.25355 1.06823,-1.17207 0.31535,-0.64452 0.64645,-1.12698 0.73555,-1.07183 0.0899,0.0553 0.21988,0.39022 0.29081,0.74505 0.0928,0.4597 0.25177,0.64487 0.5564,0.64487 0.23514,0 0.56228,-0.2161 0.72725,-0.4804 0.16495,-0.26422 0.36109,-0.74463 0.43608,-1.06738 0.0758,-0.32305 0.24158,-0.58717 0.37036,-0.58717 0.15519,0 0.20446,0.46845 0.14614,1.38532 -0.0615,0.95868 -0.22312,1.56716 -0.52639,1.97497 -0.24097,0.32428 -0.68797,0.61946 -0.99356,0.65597 -0.30542,0.0363 -0.73104,-0.0271 -0.94582,-0.14238 -0.30309,-0.16221 -0.50143,-0.0942 -0.88701,0.3072 -0.32451,0.33729 -0.73614,0.51595 -1.18837,0.51595 -0.39903,0 -0.84127,-0.16528 -1.04508,-0.39049 z m 2.56593,-5.80418 c -0.0571,-0.29186 -0.35259,-1.59611 -0.65721,-2.89844 -0.30475,-1.30218 -0.55404,-2.4698 -0.55404,-2.59454 0,-0.12473 0.30626,-0.33348 0.68038,-0.46397 0.48136,-0.16782 0.74684,-0.17069 0.90736,-0.009 0.13646,0.13674 0.22702,1.30866 0.22702,2.93849 0,1.68873 -0.0952,2.87102 -0.25021,3.13507 -0.24064,0.40803 -0.25402,0.40394 -0.3533,-0.10675 z"
       id="path3420"
       style="fill:#ffffff" />
    <g
       transform="matrix(1.2267356,0,0,1.2241081,305.38318,556.56659)"
       id="layer1-4">
      <path
         d="m 28.559944,357.55912 0,-17.82568 -2.5,-2.34863 -2.5,-2.34863 0,-9.82568 0,-9.82569 3,0 3,0 0,-39.88499 0,-39.88499 -2.5,-1.63806 -2.5,-1.63807 0,-11.35562 0,-11.35563 3,-1.24264 3,-1.24264 0,-31.25624 0,-31.25623 -1.5,-1.24489 -1.5,-1.24489 0,-7.19046 0,-7.19047 3,-2.87418 3,-2.87418 0,-18.81291 c 0,-10.3471 -0.23111,-18.81291 -0.51357,-18.81291 -0.28246,0 -1.37092,0.53542 -2.4188,1.18983 l -1.90523,1.18984 -1.5812,-1.31228 c -2.01127,-1.6692 -2.01127,-3.46558 0,-5.13478 l 1.5812,-1.312284 1.90523,1.189834 c 2.7764,1.73389 2.93237,1.58442 2.93237,-2.810162 l 0,-4 -1.5,0 c -3.36199,0 -0.57419,-3.456135 5.10672,-6.330999 l 3.10672,-1.572177 0.55167,-6.083916 0.55167,-6.083917 2.67131,-3.502261 c 1.46922,-1.926244 4.37701,-4.579025 6.46176,-5.89507 4.75415,-3.001167 5.18656,-4.604248 5.94271,-22.03166 l 0.60744,-14 1.5,0 1.5,0 0.60744,14 c 0.75615,17.427412 1.18856,19.030493 5.94271,22.03166 2.08475,1.316045 4.99254,3.968826 6.46176,5.89507 l 2.67131,3.502261 0.55167,6.083917 0.55167,6.083916 3.10672,1.572177 c 5.68091,2.874864 8.46871,6.330999 5.10672,6.330999 l -1.5,0 0,4 c 0,4.394582 0.15597,4.544052 2.93237,2.810162 l 1.90523,-1.189834 1.5812,1.312284 c 2.01126,1.6692 2.01126,3.46558 0,5.13478 l -1.5812,1.31228 -1.90523,-1.18984 c -1.04788,-0.65441 -2.13634,-1.18983 -2.4188,-1.18983 -0.28246,0 -0.51357,8.46581 -0.51357,18.81291 l 0,18.81291 3,2.87418 3,2.87418 0,7.19047 0,7.19046 -1.5,1.24489 -1.5,1.24489 0,31.25623 0,31.25624 3,1.24264 3,1.24264 0,11.35563 0,11.35562 -2.5,1.63807 -2.5,1.63806 0,39.88499 0,39.88499 3,0 3,0 0,9.82569 0,9.82568 -2.5,2.34863 -2.5,2.34863 0,17.82568 0,17.82569 -30,0 -30,0 0,-17.82569 z m 20,-4.67431 0,-16.5 -8,0 -8,0 0,16.5 0,16.5 8,0 8,0 0,-16.5 z m 19,0 0,-16.5 -9,0 -9,0 0,16.5 0,16.5 9,0 9,0 0,-16.5 z m 17,0 0,-16.5 -8,0 -8,0 0,16.5 0,16.5 8,0 8,0 0,-16.5 z m -38,-26 0,-6.5 -9,0 -9,0 0,6.5 0,6.5 9,0 9,0 0,-6.5 z m 23,0 0,-6.5 -11,0 -11,0 0,6.5 0,6.5 11,0 11,0 0,-6.5 z m 19,0 0,-6.5 -9,0 -9,0 0,6.5 0,6.5 9,0 9,0 0,-6.5 z m -39,-55 0,-47.5 -3.4171,0 c -1.8794,0 -5.4794,0.88401 -8,1.96446 l -4.5829,1.96447 0,45.53553 0,45.53554 8,0 8,0 0,-47.5 z m 3,37.5 0,-10 2,-2 c 1.1,-1.1 2.9,-2 4,-2 1.1,0 2.9,0.9 4,2 l 2,2 0,10 c 0,6 0.4,10 1,10 0.62366,0 1,-5.83333 1,-15.5 l 0,-15.5 -8,0 -8,0 0,15.5 c 0,9.66667 0.37634,15.5 1,15.5 0.6,0 1,-4 1,-10 z m 31,-35.53554 0,-45.53553 -4.58291,-1.96447 c -2.52059,-1.08045 -6.12059,-1.96446 -8,-1.96446 l -3.41709,0 0,47.5 0,47.5 8,0 8,0 0,-45.53554 z m -17,8.53554 0,-5 -8,0 -8,0 0,5 0,5 8,0 8,0 0,-5 z m -15,0 0,-4 7,0 7,0 0,4 0,4 -7,0 -7,0 0,-4 z m 13,0 0,-3 -6,0 -6,0 0,3 0,3 6,0 6,0 0,-3 z m 2,-32 0,-26 -8,0 -8,0 0,26 0,26 8,0 8,0 0,-26 z m -9.79915,9.95001 -1.28024,-2.04999 1.26708,-5.45001 c 0.6969,-2.99751 1.51243,-5.45001 1.81231,-5.45001 0.29988,0 1.11541,2.4525 1.81231,5.45001 l 1.26708,5.45001 -1.28024,2.04999 c -0.70414,1.12749 -1.51375,2.04999 -1.79915,2.04999 -0.2854,0 -1.09501,-0.9225 -1.79915,-2.04999 z m -10.20085,-52.5844 0,-6.2367 -10.25,4.28195 -10.25,4.28195 -0.29734,5.56774 -0.29734,5.56774 10.54734,-3.61299 10.54734,-3.61299 0,-6.2367 z m 44.7999,7.98079 -0.2999,-5.65359 -10.25,-4.28195 -10.25,-4.28195 0,6.36459 0,6.36458 5.40245,1.57054 c 2.97135,0.86379 7.35885,2.43894 9.75,3.50032 2.39115,1.06138 4.70751,1.96157 5.14745,2.00042 0.43995,0.0388 0.66495,-2.47348 0.5,-5.58296 z m -21.7999,-8.3464 0,-6 -11,0 -11,0 0,6 0,6 11,0 11,0 0,-6 z m -27.24598,-4.99491 6.24598,-2.49491 0,-32.75509 0,-32.75509 -1.02852,0 c -0.56568,0 -3.71568,1.35648 -7,3.0144 l -5.97148,3.01439 0,32.56894 c 0,17.91291 0.33931,32.41894 0.75402,32.2356 0.41471,-0.18333 3.56471,-1.45604 7,-2.82824 z m 40.24598,-29.49069 0,-32.48561 -5.97148,-3.01439 c -3.28432,-1.65792 -6.43432,-3.0144 -7,-3.0144 l -1.02852,0 0.0111,32.75 0.0111,32.75 6.23893,2.64034 c 3.43141,1.45218 6.57643,2.68968 6.98893,2.75 0.4125,0.0603 0.75,-14.50886 0.75,-32.37594 z m -30,21.9856 0,-5.5 2,-2 c 1.1,-1.1 2.9,-2 4,-2 1.1,0 2.9,0.9 4,2 l 2,2 0,5.5 0,5.5 1.5,0 1.5,0 0,-11 0,-11 -9,0 -9,0 0,11 0,11 1.5,0 1.5,0 0,-5.5 z m 15,-22.5 0,-5 -9,0 -9,0 0,5 0,5 9,0 9,0 0,-5 z m -17,0 0,-4 8,0 8,0 0,4 0,4 -8,0 -8,0 0,-4 z m 15,0 0,-3 -7,0 -7,0 0,3 0,3 7,0 7,0 0,-3 z m 2,-22 0,-16 -9,0 -9,0 0,16 0,16 9,0 9,0 0,-16 z m -10.82744,7.9047 -1.30854,-2.09529 1.25704,-4.90471 c 0.69137,-2.69758 1.53689,-4.9047 1.87894,-4.9047 0.34204,0 1.18757,2.20712 1.87894,4.9047 l 1.25704,4.90471 -1.30854,2.09529 c -0.71969,1.15242 -1.54204,2.0953 -1.82744,2.0953 -0.2854,0 -1.10775,-0.94288 -1.82744,-2.0953 z m -12.17925,-33.67502 0.007,-5.27033 -3.75,2.0708 c -2.0625,1.13893 -5.19517,3.06058 -6.96148,4.27032 l -3.21148,2.19953 -0.0385,4.80861 -0.0385,4.80861 6.99331,-3.80861 6.99331,-3.80861 0.007,-5.27032 z m 41.96817,8.02032 -0.0385,-4.75 -3.21148,-2.19953 c -1.76631,-1.20974 -4.89898,-3.13139 -6.96148,-4.27032 l -3.75,-2.0708 0.009,5.27033 0.009,5.27032 6.74119,3.7211 c 3.70766,2.04661 6.85369,3.73411 6.99119,3.75 0.1375,0.0159 0.23267,-2.1086 0.21148,-4.7211 z m -14.96148,-8.75 0,-5.5 -13,0 -13,0 0,5.5 0,5.5 13,0 13,0 0,-5.5 z m -32.84075,-8.61979 c -0.21189,-3.70412 0.12189,-6.51404 0.88268,-7.43074 l 1.22343,-1.47413 1.36732,1.13477 c 0.82178,0.68202 1.36732,3.12354 1.36732,6.11932 l 0,4.98455 1.58179,-0.60699 c 0.86998,-0.33385 1.76998,-0.60699 2,-0.60699 0.23001,0 0.41821,-11.025 0.41821,-24.5 l 0,-24.500002 -2.46607,0 c -1.35634,0 -4.05634,0.758346 -6,1.685212 l -3.53393,1.685213 0,4.814787 0,4.81479 4,0 4,0 0,6 c 0,3.3 -0.31608,6 -0.70239,6 -0.38632,0 -2.18632,-1.43828 -4,-3.19617 l -3.29761,-3.19617 0,18.20465 0,18.20464 1.75,-1.09007 1.75,-1.09006 -0.34075,-5.95661 z m 42.84075,-10.07638 0,-18.19617 -3.29761,3.19617 c -1.81368,1.75789 -3.61368,3.19617 -4,3.19617 -0.38631,0 -0.70239,-2.7 -0.70239,-6 l 0,-6 4,0 4,0 0,-4.81479 0,-4.814787 -3.53393,-1.685213 c -1.94366,-0.926866 -4.64366,-1.685212 -6,-1.685212 l -2.46607,0 0,24.500002 c 0,13.475 0.1882,24.5 0.41821,24.5 0.23002,0 1.13002,0.27314 2,0.60699 l 1.58179,0.60699 0,-4.98455 c 0,-2.99578 0.54554,-5.4373 1.36732,-6.11932 l 1.36732,-1.13477 1.1851,1.42796 c 0.70415,0.84845 1.06237,3.79571 0.88268,7.26233 l -0.30242,5.83437 1.5,1.2182 c 0.825,0.67 1.6125,1.2325 1.75,1.25 0.1375,0.0175 0.25,-8.15648 0.25,-18.16437 z m -28,8.91868 c 0,-3.97245 2.42801,-7.72251 5,-7.72251 2.57199,0 5,3.75006 5,7.72251 l 0,3.27749 2.5,0 2.5,0 0,-24.5 0,-24.500002 -10,0 -10,0 0,24.500002 0,24.5 2.5,0 2.5,0 0,-3.27749 z m -11,-26.72251 0,-5 -5.3,0 c -2.915,0 -5.80975,-0.50975 -6.43278,-1.13278 -1.46273,-1.462735 -4.26722,-0.38964 -4.26722,1.63278 0,2.15107 2.69515,2.99789 4.57525,1.43755 l 1.54978,-1.28621 4.67433,4.67433 c 2.57088,2.57088 4.79274,4.67433 4.93748,4.67433 0.14474,0 0.26316,-2.25 0.26316,-5 z m 43.43769,-3.05171 c 1.86927,1.55135 4.56231,0.69645 4.56231,-1.44829 0,-2.02242 -2.80449,-3.095515 -4.26722,-1.63278 -0.62303,0.62303 -3.51778,1.13278 -6.43278,1.13278 l -5.3,0 0,5.21241 0,5.2124 4.95043,-4.87599 4.95043,-4.87599 1.53683,1.27546 z m -27.43769,-16.948292 17.74809,0 4.87596,2.700285 c 2.77701,1.537899 4.34034,2.03486 3.6317,1.154468 -0.68433,-0.850199 -3.04683,-2.35867 -5.25,-3.352159 l -4.00575,-1.806343 0,-3.880244 c 0,-7.327933 -4.92784,-15.300836 -11.01559,-17.822466 l -2.78064,-1.151775 -0.73232,-3.170883 c -0.40278,-1.743986 -0.92175,-9.583383 -1.15327,-17.420883 -0.23151,-7.8375 -0.8247,-14.25 -1.31818,-14.25 -0.49348,0 -1.08667,6.4125 -1.31818,14.25 -0.23152,7.8375 -0.75049,15.676897 -1.15327,17.420883 l -0.73233,3.170883 -2.78063,1.151775 c -6.08775,2.52163 -11.01559,10.494533 -11.01559,17.822466 l 0,3.880244 -4.00575,1.806343 c -2.20317,0.993489 -4.56567,2.50196 -5.25,3.352159 -0.70864,0.880392 0.85469,0.383431 3.6317,-1.154468 l 4.87596,-2.700285 17.74809,0 z"
         id="path3026"
         style="fill:#000000;fill-opacity:1" />
      <path
         d="m -85.398726,107.47488 c -0.527814,0.32327 -0.451462,1.1055 -0.614523,1.63915 -0.652689,4.61314 -0.706052,9.28693 -0.933818,13.93492 -0.238185,5.16891 -0.396343,10.36171 -0.988664,15.49882 -0.243301,1.24169 -0.461276,2.5046 -0.842571,3.70793 -1.571652,0.87538 -3.418387,1.34154 -4.905971,2.42412 -4.459152,3.00807 -7.382727,7.98666 -8.523577,13.19555 -0.48773,2.41003 -0.27109,4.8938 -0.37994,7.33729 -2.98044,1.40602 -6.16589,2.5639 -8.70723,4.70941 -0.25826,0.29271 -0.98593,0.75789 -0.53316,1.1669 0.79097,0.20474 1.55552,-0.36833 2.2706,-0.63193 2.26007,-1.10508 4.41898,-2.46949 6.66312,-3.56544 11.73094,0 23.461877,0 35.192815,0 2.520805,1.32709 4.94328,2.8718 7.554747,3.99778 0.41514,0.12009 1.140894,0.53277 1.41925,-0.002 -0.01987,-0.60311 -0.71838,-0.91749 -1.097232,-1.30632 -2.488104,-1.92265 -5.449342,-3.0703 -8.288757,-4.36864 -0.102602,-2.29605 0.07988,-4.61884 -0.278792,-6.89545 -0.939394,-4.86303 -3.476159,-9.47251 -7.285758,-12.65404 -1.800911,-1.55826 -4.03947,-2.40757 -6.217056,-3.30833 -0.635776,-2.27812 -1.046847,-4.60538 -1.170552,-6.97189 -0.698377,-8.03761 -0.623765,-16.121 -1.343435,-24.15614 -0.188221,-1.20163 -0.176648,-2.48583 -0.661141,-3.60633 -0.06895,-0.10913 -0.199562,-0.17555 -0.328355,-0.14559 z"
         transform="translate(143.9048,-99.28871)"
         id="path4524"
         style="fill:#ffffff;fill-opacity:1;stroke:#ffffff;stroke-width:0.816046;stroke-opacity:1" />
      <path
         d="m -98.343957,168.35061 c -3.361223,0.0113 -6.356823,1.7391 -9.327133,3.09459 -0.0133,2.84059 -0.0285,5.68117 -0.0465,8.52173 2.45646,0 4.91293,0 7.36939,0 0.632617,0.24359 0.776676,0.87028 0.672481,1.48065 -0.07259,3.19537 0.01015,6.39986 -0.238804,9.58739 -0.177897,0.75493 -0.08587,1.8499 -0.916917,2.22723 -0.88501,0.14904 -1.54925,-0.66995 -2.21057,-1.12582 -1.62276,-1.34167 -3.12807,-2.83788 -4.63841,-4.29513 -0.0517,11.21867 -0.0544,22.43772 0.003,33.65636 0.71503,-0.44235 1.43509,-0.87738 2.14359,-1.3289 -0.16473,-3.60998 -0.50738,-7.23774 -0.17966,-10.845 0.14114,-1.40175 0.82891,-2.6755 1.78736,-3.68625 0.35032,-0.64688 1.31037,-0.69986 1.73966,-0.0973 0.96604,0.66725 1.7308,1.62038 1.97447,2.78921 0.648266,2.3773 0.407841,4.8855 0.514881,7.32284 0.122829,0.39657 -0.297076,1.57152 0.406261,1.13258 0.637161,-0.24684 1.33746,-0.41639 1.950412,-0.67713 0.27456,-4.63236 0.198726,-9.26987 0.264564,-13.9086 0.07204,-11.28473 0.07561,-22.56974 0.110256,-33.85462 -0.461448,0.005 -0.920819,-0.002 -1.378471,0.006 z"
         transform="translate(143.9048,-99.28871)"
         id="path4532"
         style="fill:#ffffff;fill-opacity:1;stroke:#ffffff;stroke-width:0.816046;stroke-opacity:1" />
    </g>
    <path
       d="m 341.02456,655.80554 c -1.37788,-0.0473 -2.70201,1.19996 -2.41683,2.61262 0.12873,1.37439 1.70186,1.918 2.89564,1.69119 1.56997,-0.21707 2.51367,-1.69052 3.85323,-2.37371 0.85893,0.0167 1.26641,0.98824 1.90762,1.43333 3.19828,3.12466 6.30169,6.36836 9.59131,9.38874 0.12047,-3.54407 0.1007,-7.09083 0.14059,-10.63628 -4.09183,-0.10901 -8.27017,0.33689 -12.28132,-0.67245 -1.14606,-0.17921 -1.99443,-1.03719 -3.04424,-1.42448 -0.21376,-0.0267 -0.43091,-0.0259 -0.646,-0.019 z"
       id="path4592"
       style="fill:#ffffff;fill-opacity:1;stroke:#ffffff;stroke-width:0.99999994;stroke-opacity:1" />
    <path
       d="m 361.74999,640.81616 c -4.38168,-0.006 -8.34645,2.12382 -12.22475,3.95115 0.0204,3.6099 0.0396,7.21979 0.057,10.82968 3.07803,0.018 6.15607,0.0388 9.23409,0.0608 0.92846,0.42828 0.47891,1.49948 0.56586,2.29398 -0.0882,3.66025 0.0291,7.33694 -0.29225,10.98525 -0.1959,0.80291 -0.12182,1.92355 -0.93861,2.38511 -0.99822,0.14971 -1.73275,-0.80813 -2.49283,-1.30063 -2.14377,-1.77225 -4.12303,-3.74352 -6.13328,-5.6651 0.0126,14.03761 -0.0252,28.1258 0.019,42.13184 1.13905,-0.46551 2.1763,-1.19179 3.16925,-1.91114 -0.23048,-4.4048 -0.62659,-8.83682 -0.23562,-13.24132 0.14462,-1.92526 1.25159,-3.61502 2.5968,-4.92414 0.79139,-0.37524 1.43537,0.5738 2.01118,0.97526 1.5108,1.20304 1.8532,3.24524 2.0953,5.04476 0.21722,2.8178 0.11813,5.65438 0.23561,8.47868 1.09121,-0.40079 2.18959,-0.80456 3.31364,-1.11861 0.33434,-4.66497 0.24154,-9.3516 0.32299,-14.02625 0.10589,-14.9841 0.10667,-29.96867 0.15961,-44.953 -0.48767,10e-4 -0.97539,-0.003 -1.46302,0.003 z"
       id="path4594"
       style="fill:#ffffff;fill-opacity:1;stroke:#ffffff;stroke-width:0.99999994;stroke-opacity:1" />
    <path
       d="m 377.23894,640.84271 c -3.9077,0.0101 -7.81541,0.0202 -11.72312,0.0304 -0.009,19.59527 -0.0739,39.19063 -0.0152,58.78587 1.6516,0.0747 3.30619,0.0287 4.95904,0.0417 0.0906,-3.11682 -0.10014,-6.43353 1.47822,-9.25223 0.94002,-1.87703 2.50559,-3.73473 4.67025,-4.13317 2.40318,-0.35263 4.42193,1.53124 5.5265,3.46778 1.24476,2.03383 1.79568,4.4174 1.74846,6.78925 0.0277,1.0427 0.0479,2.08556 0.0705,3.12837 1.66949,0 3.33899,0 5.00846,0 0,-19.62941 0,-39.25883 0,-58.88824 -3.90771,0.0101 -7.81542,0.0203 -11.72312,0.0304 z"
       id="path4596"
       style="fill:#ffffff;fill-opacity:1;stroke:#ffffff;stroke-width:0.99999994;stroke-opacity:1" />
    <path
       d="m 413.00495,655.81692 c -1.1249,0.0841 -1.8517,1.18931 -2.97924,1.34992 -3.3462,0.99329 -6.89544,0.602 -10.34361,0.74424 -0.74865,0.008 -1.49729,0.0144 -2.24592,0.0217 0,3.63769 0,7.27539 0,10.9131 3.70649,-3.66788 7.42013,-7.32856 11.13031,-10.99273 0.94579,-0.32832 1.48466,0.65762 2.18503,1.10345 0.90707,0.8511 2.11247,1.39509 3.36684,1.1224 1.4981,-0.12341 2.29343,-2.06811 1.37942,-3.22312 -0.55458,-0.77621 -1.56342,-1.11736 -2.49283,-1.03898 z"
       id="path4598"
       style="fill:#ffffff;fill-opacity:1;stroke:#ffffff;stroke-width:0.99999994;stroke-opacity:1" />
    <path
       d="m 391.31051,663.88609 c 0.0443,11.37057 -0.0327,22.7448 0.29024,34.11186 0.0873,0.58951 -0.0683,1.37078 0.24696,1.82056 1.06396,0.35007 2.12557,0.70292 3.17544,1.09172 0.12893,-3.8652 -0.29243,-7.86315 0.93481,-11.59563 0.49986,-1.28033 1.61903,-2.21383 2.72082,-2.96527 0.91334,-0.12582 1.37364,0.92299 1.90763,1.47883 1.63493,2.0564 1.32183,4.84664 1.43884,7.3032 0.0665,3.05858 -0.19104,6.10988 -0.26842,9.16504 0.93852,0.78212 1.89512,1.54527 2.87662,2.27136 0.3144,-14.05645 0.2297,-28.11826 0.2584,-42.17734 -2.45752,2.28837 -4.79427,4.73706 -7.52788,6.69649 -0.54957,0.52213 -1.59707,0.34154 -1.70242,-0.48158 -0.71458,-3.53066 -0.55397,-7.16885 -0.6194,-10.75382 0.0526,-1.22464 -0.10498,-2.52554 0.0781,-3.70294 0.45762,-0.86886 1.55458,-0.36005 2.33498,-0.49469 2.47889,0 4.95779,0 7.43667,0 0,-3.63266 0,-7.2653 0,-10.89793 -3.36147,-1.54194 -6.72153,-3.3964 -10.43871,-3.84121 -1.05168,-0.0482 -2.1053,-0.0296 -3.15784,-0.0379 0.005,7.66976 0.0101,15.33952 0.0152,23.00927 z"
       id="path4600"
       style="fill:#ffffff;fill-opacity:1;stroke:#ffffff;stroke-width:0.99999994;stroke-opacity:1" />
    <path
       d="m 395.03835,703.8262 c -0.0339,3.81463 0.0157,7.62933 0.0266,11.44397 5.24531,2.87865 10.45988,5.81755 15.77017,8.57349 0.13593,-3.4749 0.0455,-6.95465 0.0759,-10.43154 -5.09153,-3.55282 -10.40255,-6.8117 -15.86896,-9.75277 l -0.002,0.12132 -10e-4,0.0456 z"
       id="path4602"
       style="fill:#ffffff;fill-opacity:1;stroke:#ffffff;stroke-width:0.99999994;stroke-opacity:1" />
    <path
       d="m 361.80699,708.23619 c 0,2.04889 0,4.09778 0,6.14667 10.2677,0 20.53541,0 30.80314,0 0,-4.09778 0,-8.19557 0,-12.29335 -10.26773,0 -20.53544,0 -30.80314,0 0,2.0489 0,4.09778 0,6.14668 z"
       id="path4604"
       style="fill:#ffffff;fill-opacity:1;stroke:#ffffff;stroke-width:0.99999994;stroke-opacity:1" />
    <path
       d="m 359.15075,703.79966 c -5.37605,2.88841 -10.55004,6.07259 -15.55736,9.56318 -0.17734,3.52226 -0.14137,7.05022 -0.14821,10.57561 5.30618,-2.8895 10.61762,-5.77357 15.92597,-8.66071 0.21766,-3.87788 0.15848,-7.76685 0.1025,-11.64871 -0.10768,0.0569 -0.21533,0.11371 -0.323,0.17063 z"
       id="path4606"
       style="fill:#ffffff;fill-opacity:1;stroke:#ffffff;stroke-width:0.99999994;stroke-opacity:1" />
    <path
       d="m 364.03381,721.63299 c -2.2906,0.38129 -4.31338,1.64178 -6.41453,2.56249 -3.11125,1.51496 -6.20784,3.06473 -9.31004,4.60041 0.0215,23.50479 -0.0864,47.01258 0.36814,70.51416 0.0493,1.41874 0.0571,2.85239 0.18287,4.25837 2.96071,-0.0303 5.94476,0.0602 8.89099,-0.045 2.19581,-0.87665 4.39135,-1.75392 6.58657,-2.63202 0.0203,-26.4207 0.0404,-52.84142 0.0608,-79.26213 -0.12156,0.003 -0.24345,-0.005 -0.36481,0.003 z"
       id="path4608"
       style="fill:#ffffff;fill-opacity:1;stroke:#ffffff;stroke-width:0.99999994;stroke-opacity:1" />
    <path
       d="m 366.79264,740.63421 c 0,6.33626 0,12.67254 0,19.0088 6.98447,0 13.96896,0 20.95343,0 0,-12.67254 0,-25.34508 0,-38.01762 -6.98447,0 -13.96896,0 -20.95343,0 0,6.33627 0,12.67254 0,19.00882 z m 10.53751,-5.36933 c 0.89332,0.32157 1.0475,1.44695 1.42881,2.20308 1.22539,3.29544 1.92901,6.75391 2.85003,10.14713 -0.13713,0.96945 -0.96941,1.70259 -1.4001,2.57069 -0.81878,1.09309 -1.41197,2.50316 -2.67354,3.1513 -0.99687,0.33273 -1.60904,-0.82893 -2.14357,-1.46249 -0.90843,-1.29913 -1.86087,-2.61742 -2.54548,-4.03373 0.22624,-1.57417 0.78845,-3.14079 1.14362,-4.71158 0.75435,-2.55536 1.18808,-5.27366 2.63342,-7.55727 0.1663,-0.21545 0.42976,-0.3535 0.70681,-0.30713 z"
       id="path4610"
       style="fill:#ffffff;fill-opacity:1;stroke:#ffffff;stroke-width:0.99999994;stroke-opacity:1" />
    <path
       d="m 390.04888,761.13702 c 0.0101,13.24638 0.0203,26.49276 0.0304,39.73914 2.15925,0.87852 4.29241,1.88476 6.46768,2.68476 3.01976,0.002 6.03952,0.005 9.05929,0.008 0.48966,-13.31974 0.37032,-26.6519 0.45001,-39.97802 0.0318,-11.58678 0.0515,-23.17359 0.0782,-34.76039 -4.81749,-2.4033 -9.55752,-5.00596 -14.58456,-6.94677 -0.49131,-0.17814 -1.01706,-0.23421 -1.53143,-0.25025 0.0101,13.168 0.0203,26.33602 0.0304,39.50403 z"
       id="path4612"
       style="fill:#ffffff;fill-opacity:1;stroke:#ffffff;stroke-width:0.99999994;stroke-opacity:1" />
    <path
       d="m 369.22465,767.57187 c 0,1.03774 0,2.07544 0,3.11316 5.32261,0 10.6452,0 15.96778,0 0,-2.07542 0,-4.15087 0,-6.22632 -5.32258,0 -10.64517,0 -15.96778,0 0,1.03774 0,2.07545 0,3.11316 z"
       id="path4614"
       style="fill:#ffffff;fill-opacity:1;stroke:#ffffff;stroke-width:0.99999994;stroke-opacity:1" />
    <path
       d="m 366.79264,767.57187 c 0,1.84666 0,3.69332 0,5.53998 6.98447,0 13.96896,0 20.95343,0 0,-3.69332 0,-7.38662 0,-11.07995 -6.98447,0 -13.96896,0 -20.95343,0 0,1.84668 0,3.69333 0,5.53997 z m 10.41591,-5.50204 c 3.26297,0 6.52594,0 9.78891,0 0.92819,0.42285 0.49401,1.49281 0.58901,2.28652 0,2.70995 0,5.41989 0,8.12985 -0.42377,0.92619 -1.49603,0.49294 -2.29143,0.58773 -5.95846,0 -11.91692,0 -17.8754,0 -0.92818,-0.42285 -0.49401,-1.49282 -0.589,-2.28652 0,-2.70995 0,-5.41989 0,-8.12984 0.42375,-0.9262 1.49601,-0.49296 2.29143,-0.58774 2.6955,0 5.39098,0 8.08648,0 z"
       id="path4616"
       style="fill:#ffffff;fill-opacity:1;stroke:#ffffff;stroke-width:0.99999994;stroke-opacity:1" />
    <path
       d="m 366.79264,788.38184 c 0,4.2937 0,8.5874 0,12.8811 0.82335,0 1.64669,0 2.47002,0 0.0279,-4.31534 -0.0555,-8.65025 0.0416,-12.95342 0.51303,-0.90186 1.47979,-1.51136 2.17508,-2.29349 1.59327,-1.53625 3.58018,-2.97979 5.87746,-3.04903 3.0084,0.21269 5.13058,2.63938 7.16323,4.59008 1.02257,0.64905 0.51736,1.93851 0.63446,2.92926 0,3.59219 0,7.18438 0,10.7766 0.86388,0 1.72775,0 2.59162,0 0,-8.5874 0,-17.1748 0,-25.76219 -6.98447,0 -13.96895,0 -20.95343,0 0,4.2937 0,8.58739 0,12.88109 z"
       id="path4618"
       style="fill:#ffffff;fill-opacity:1;stroke:#ffffff;stroke-width:0.99999994;stroke-opacity:1" />
    <path
       d="m 392.45052,811.05363 c 0,2.44452 0,4.88902 0,7.33354 6.09076,1.73177 12.16828,3.53995 18.00553,6.01085 2.06042,0.80446 4.06586,1.7961 6.17794,2.42993 0.4264,-1.88093 0.22352,-3.85946 0.24547,-5.78252 -0.0615,-2.30961 -0.18961,-4.62747 -0.36708,-6.92415 -7.99235,-3.38354 -16.02523,-6.73242 -24.06186,-10.03338 0,2.3219 0,4.64381 0,6.96573 z"
       id="path4620"
       style="fill:#ffffff;fill-opacity:1;stroke:#ffffff;stroke-width:0.99999994;stroke-opacity:1" />
    <path
       d="m 364.239,810.40522 c 0,2.25111 0,4.50224 0,6.75338 8.64637,0 17.29273,0 25.9391,0 0,-4.50227 0,-9.00452 0,-13.50676 -8.64637,0 -17.29273,0 -25.9391,0 0,2.25112 0,4.50224 0,6.75338 z"
       id="path4622"
       style="fill:#ffffff;fill-opacity:1;stroke:#ffffff;stroke-width:0.99999994;stroke-opacity:1" />
    <path
       d="m 361.58659,804.26233 c -7.91665,3.23503 -15.79534,6.56268 -23.69327,9.84378 -0.22088,4.14411 -0.48127,8.28676 -0.64222,12.43364 8.21984,-2.79738 16.43828,-5.60912 24.64328,-8.43698 0.10138,-4.65772 0.0974,-9.31882 0.0229,-13.97695 -0.11016,0.0456 -0.22041,0.0909 -0.3306,0.13651 z"
       id="path4624"
       style="fill:#ffffff;fill-opacity:1;stroke:#ffffff;stroke-width:0.99999994;stroke-opacity:1" />
    <path
       d="m 363.14461,831.83705 c -1.96527,-0.0341 -3.90352,0.14872 -5.78034,0.71389 -3.55916,0.85168 -6.84434,2.45495 -10.21024,3.85534 -0.0203,27.88313 -0.0404,55.76626 -0.0608,83.64938 6.1738,0 12.34761,0 18.52139,0 0,-29.42263 0,-58.84528 0,-88.26791 -0.82333,0.0164 -1.64668,0.0329 -2.47002,0.0494 z"
       id="path4626"
       style="fill:#ffffff;fill-opacity:1;stroke:#ffffff;stroke-width:0.99999994;stroke-opacity:1" />
    <path
       d="m 368.00866,863.06715 c 0,10.42142 0,20.84284 0,31.26424 6.15353,-0.0203 12.30706,-0.0404 18.46058,-0.0608 0.0203,-20.82261 0.0404,-41.64521 0.0608,-62.46781 -6.17379,0 -12.3476,0 -18.5214,0 0,10.42141 0,20.84284 0,31.26424 z m 9.21509,-4.16728 c 0.9102,0.17051 1.01721,1.33892 1.35361,2.03747 1.24514,3.81197 2.04809,7.75675 2.92523,11.66645 -0.20745,1.08327 -1.06455,1.93889 -1.59554,2.88768 -0.75881,0.98821 -1.36249,2.33749 -2.61111,2.77743 -1.01548,-0.0565 -1.53283,-1.14886 -2.12652,-1.83827 -0.79342,-1.17873 -1.67891,-2.34504 -2.24606,-3.63623 0.23928,-1.73814 0.78029,-3.47155 1.14315,-5.20588 0.72518,-2.72862 1.2357,-5.53081 2.38204,-8.11608 0.1494,-0.2965 0.41478,-0.58182 0.7752,-0.57257 z"
       id="path4628"
       style="fill:#ffffff;fill-opacity:1;stroke:#ffffff;stroke-width:0.99999994;stroke-opacity:1" />
    <path
       d="m 388.80248,875.91791 c 0,14.71258 0,29.42518 0,44.13775 6.1738,0 12.34761,0 18.5214,0 -0.003,-27.88565 -0.005,-55.77131 -0.003,-83.65695 -4.46448,-1.85141 -8.89372,-4.02134 -13.74836,-4.49296 -1.58817,-0.0833 -3.17959,-0.0766 -4.76924,-0.1142 0,14.70878 0,29.41757 0,44.12636 z"
       id="path4630"
       style="fill:#ffffff;fill-opacity:1;stroke:#ffffff;stroke-width:0.99999994;stroke-opacity:1" />
    <path
       d="m 370.44067,902.26026 c 0,1.03771 0,2.07544 0,3.11316 4.51192,0 9.02385,0 13.53575,0 0,-2.07545 0,-4.15088 0,-6.22631 -4.5119,0 -9.02383,0 -13.53575,0 0,1.03771 0,2.07543 0,3.11315 z"
       id="path4632"
       style="fill:#ffffff;fill-opacity:1;stroke:#ffffff;stroke-width:0.99999994;stroke-opacity:1" />
    <path
       d="m 368.00866,902.26026 c 0,1.84666 0,3.69331 0,5.53998 6.15479,-0.0201 12.30959,-0.0405 18.46439,-0.0608 0.017,-3.6731 0.0359,-7.3462 0.057,-11.01926 -6.1738,0 -12.34761,0 -18.5214,0 0,1.84665 0,3.6933 0,5.53996 z m 9.19989,-5.50205 c 2.85764,0 5.71526,0 8.57289,0 0.92819,0.42287 0.49402,1.49282 0.58901,2.28652 0,2.6695 0,5.33899 0,8.00849 -0.42377,0.92621 -1.49602,0.49296 -2.29143,0.58774 -5.14778,0 -10.29557,0 -15.44338,0 -0.92818,-0.42285 -0.49401,-1.4928 -0.58899,-2.2865 0,-2.6695 0,-5.339 0,-8.0085 0.42376,-0.92621 1.49602,-0.49297 2.29142,-0.58775 2.29017,0 4.58032,0 6.87048,0 z"
       id="path4634"
       style="fill:#ffffff;fill-opacity:1;stroke:#ffffff;stroke-width:0.99999994;stroke-opacity:1" />
    <path
       d="m 368.00866,922.7972 c 0.0543,7.24359 -0.0769,14.51134 0.44224,21.73452 0.0565,0.54839 0.11739,1.09682 0.21896,1.63878 0.62054,-3.65612 0.49179,-7.43049 0.5776,-11.14441 0.0553,-4.00197 -0.0452,-8.02322 0.0568,-12.01301 0.51613,-0.90516 1.46789,-1.53231 2.16247,-2.32038 1.59863,-1.54398 3.59234,-3.06004 5.91666,-3.05249 2.6779,0.26963 4.81317,2.14947 6.62288,3.98589 0.60235,0.55492 1.37383,1.13536 1.1334,2.06598 0.0907,6.57268 -0.0551,13.16722 0.2884,19.72549 0.0561,0.85255 0.167,1.78025 0.33822,2.58608 0.68413,-4.90622 0.52986,-9.88756 0.67022,-14.83378 0.10092,-6.99311 0.0907,-13.98709 0.0936,-20.98075 -6.1738,0 -12.34761,0 -18.52141,0 0,4.2027 0,8.4054 0,12.60808 z"
       id="path4636"
       style="fill:#ffffff;fill-opacity:1;stroke:#ffffff;stroke-width:0.99999994;stroke-opacity:1" />
    <path
       d="m 402.95762,949.29123 c -3.48336,0.0101 -6.96674,0.0201 -10.4501,0.0304 -0.0177,4.92694 -0.0355,9.85387 -0.0533,14.78083 6.9832,0 13.96642,0 20.94962,0 0,-4.94717 0,-9.89434 0,-14.8415 -3.4821,0.0101 -6.96421,0.0202 -10.44631,0.0304 z"
       id="path4638"
       style="fill:#ffffff;fill-opacity:1;stroke:#ffffff;stroke-width:0.99999994;stroke-opacity:1" />
    <path
       d="m 364.2694,956.71578 c -0.009,2.4622 -0.0178,4.92441 -0.0266,7.38663 8.64384,0 17.28766,0 25.93148,0 -0.0178,-4.92696 -0.0355,-9.85389 -0.0533,-14.78085 -8.60836,0 -17.21672,0 -25.82508,0 -0.009,2.46474 -0.0178,4.92948 -0.0266,7.39422 z"
       id="path4640"
       style="fill:#ffffff;fill-opacity:1;stroke:#ffffff;stroke-width:0.99999994;stroke-opacity:1" />
    <path
       d="m 341.01314,956.68165 c 0,2.47359 0,4.94717 0,7.42076 6.98323,0 13.96644,0 20.94964,0 -0.0178,-4.92696 -0.0355,-9.85389 -0.0533,-14.78085 -6.96549,-0.0201 -13.93096,-0.0404 -20.89644,-0.0608 0,2.47357 0,4.94715 0,7.42075 z"
       id="path4642"
       style="fill:#ffffff;fill-opacity:1;stroke:#ffffff;stroke-width:0.99999994;stroke-opacity:1" />
    <path
       d="m 345.87721,988.53363 c 0,6.53847 0,13.07697 0,19.61547 6.17381,0 12.3476,0 18.5214,0 0,-13.077 0,-26.15397 0,-39.23099 -6.1738,0 -12.34759,0 -18.5214,0 0,6.5385 0,13.07702 0,19.61552 z"
       id="path4644"
       style="fill:#ffffff;fill-opacity:1;stroke:#ffffff;stroke-width:0.99999994;stroke-opacity:1" />
    <path
       d="m 366.79264,988.53363 c 0,6.53847 0,13.07697 0,19.61547 6.98447,0 13.96896,0 20.95343,0 0,-13.077 0,-26.15397 0,-39.23099 -6.98447,0 -13.96896,0 -20.95343,0 0,6.5385 0,13.07702 0,19.61552 z"
       id="path4646"
       style="fill:#ffffff;fill-opacity:1;stroke:#ffffff;stroke-width:0.99999994;stroke-opacity:1" />
    <path
       d="m 390.01849,988.53363 c 0,6.53847 0,13.07697 0,19.61547 6.17379,0 12.34761,0 18.52141,0 0,-13.077 0,-26.15397 0,-39.23099 -6.1738,0 -12.34762,0 -18.52141,0 0,6.5385 0,13.07702 0,19.61552 z"
       id="path4648"
       style="fill:#ffffff;fill-opacity:1;stroke:#ffffff;stroke-width:0.99999994;stroke-opacity:1" />
    <path
       d="m 347.06466,917.041 c 0.0498,9.98234 0.0621,19.96478 0.0564,29.94722 6.15691,-0.0143 12.3138,-0.0287 18.4707,-0.0429 0.0143,-13.46538 0.0287,-26.93079 0.043,-40.39617 -6.20884,0 -12.41769,0 -18.62653,0 0.0188,3.49727 0.0376,6.99456 0.0564,10.49185 z"
       id="path4652"
       style="fill:#ffffff;fill-opacity:1;stroke:#ffffff;stroke-width:0.99999994;stroke-opacity:1" />
    <path
       d="m 388.76745,916.96325 c 0.0504,10.00824 0.062,20.01663 0.0564,30.02497 6.15689,-0.0143 12.31379,-0.0287 18.47067,-0.0429 0.0143,-13.46538 0.0287,-26.93079 0.043,-40.39617 -6.20884,0 -12.41768,0 -18.62653,0 0.0188,3.47137 0.0376,6.94271 0.0564,10.41408 z"
       id="path4654"
       style="fill:#ffffff;fill-opacity:1;stroke:#ffffff;stroke-width:0.99999994;stroke-opacity:1" />
    <path
       d="m 348.16618,762.59501 c 0.0994,12.7323 0.16,25.47897 0.46874,38.20049 0.0886,2.09974 0.16757,4.20151 0.35485,6.29519 5.17481,-1.94227 10.30176,-4.05178 15.44666,-6.08929 -8.4e-4,-13.02555 5.6e-4,-26.0511 0.004,-39.07665 -5.42634,0 -10.85268,0 -16.27902,0 0.001,0.22342 0.003,0.44684 0.004,0.67026 z"
       id="path4656"
       style="fill:#ffffff;fill-opacity:1;stroke:#ffffff;stroke-width:1;stroke-opacity:1" />
    <path
       d="m 389.97206,781.36232 c 0.0117,6.53321 0.0234,13.06643 0.035,19.59965 5.1206,2.13872 10.23077,4.4213 15.42476,6.29519 0.55104,-6.89 0.52223,-13.83159 0.64828,-20.75173 0.0913,-8.1933 0.12344,-16.38707 0.17531,-24.58068 -5.43948,0 -10.87896,0 -16.31844,0 0.0117,6.47919 0.0234,12.95838 0.0351,19.43757 z"
       id="path4658"
       style="fill:#ffffff;fill-opacity:1;stroke:#ffffff;stroke-width:1;stroke-opacity:1" />
    <path
       d="m 104,38.5 a 83,69.5 0 1 1 -166,0 83,69.5 0 1 1 166,0 z"
       transform="matrix(0.90361446,0,0,1.0791367,917.0241,585.81542)"
       id="path3012-1"
       style="fill:#ffffff" />
    <path
       d="m 104,38.5 a 83,69.5 0 1 1 -166,0 83,69.5 0 1 1 166,0 z"
       transform="matrix(0.90361446,0,0,1.0791367,926.0241,575.37742)"
       id="path3012-7"
       style="fill:#000000" />
    <path
       d="m 981.46664,88.541981 -24.42465,0.09519 -11.98244,21.283647 -12.29476,-21.104765 -24.4234,0.264731 12.12988,-21.199962 -12.44096,-21.01892 24.42465,-0.09519 11.98244,-21.28365 12.29476,21.104769 24.4234,-0.264731 -12.12989,21.199962 z"
       transform="matrix(0.97292316,-0.23112882,0.23112882,0.97292316,51.613017,750.98644)"
       id="path3133"
       style="fill:#ffffff" />
    <g
       transform="translate(-647.09,427.44438)"
       id="layer1-9">
      <path
         d=""
         id="path3048"
         style="fill:#000000" />
      <path
         d=""
         id="path3046"
         style="fill:#000000" />
      <path
         d=""
         id="path3044"
         style="fill:#000000" />
      <path
         d=""
         id="path3042"
         style="fill:#000000" />
      <path
         d=""
         id="path3040"
         style="fill:#000000" />
      <path
         d="m 1024.0902,225.9178 c -5.2467,0 -9.5,4.25329 -9.5,9.5 0,5.24671 4.2533,9.5 9.5,9.5 5.2467,0 9.5,-4.25329 9.5,-9.5 0,-5.24671 -4.2533,-9.5 -9.5,-9.5 z m 0,1 c 4.6944,0 8.5,3.80558 8.5,8.5 0,4.69442 -3.8056,8.5 -8.5,8.5 -4.6945,0 -8.5,-3.80558 -8.5,-8.5 0,-4.69442 3.8055,-8.5 8.5,-8.5 z m 0,1 c -4.1422,0 -7.5,3.35786 -7.5,7.5 0,4.14214 3.3578,7.5 7.5,7.5 4.1421,0 7.5,-3.35786 7.5,-7.5 0,-4.14214 -3.3579,-7.5 -7.5,-7.5 z m 0,1 c 3.5898,0 6.5,2.91015 6.5,6.5 0,3.58985 -2.9102,6.5 -6.5,6.5 -3.5899,0 -6.5,-2.91015 -6.5,-6.5 0,-3.58985 2.9101,-6.5 6.5,-6.5 z"
         id="path3305"
         style="fill:#000000" />
      <path
         d="m 544.73625,154.44463 a 0.67600393,0.67600393 0 1 1 -1.35201,0 0.67600393,0.67600393 0 1 1 1.35201,0 z"
         transform="translate(480.02984,80.96035)"
         id="path3337"
         style="fill:#000000" />
      <path
         d="m 1021.1302,237.63256 2.9846,-2.18515 4.7433,1.38571"
         id="path3597"
         style="fill:none;stroke:#000000;stroke-width:1px;stroke-linecap:butt;stroke-linejoin:miter;stroke-opacity:1" />
      <path
         d="m 583.28,97.338698 0,37.625492"
         id="path3772"
         style="fill:none;stroke:#ffffff;stroke-width:1px;stroke-linecap:butt;stroke-linejoin:miter;stroke-opacity:1" />
    </g>
  </g>
</svg>
